M48
; DRILL file KiCad 10.0.5 date 2026-08-10T16:58:06
; FORMAT={-:-/ absolute / inch / decimal}
; #@! TF.CreationDate,2026-08-10T16:58:06-08:00
; #@! TF.GenerationSoftware,Kicad,Pcbnew,10.0.5
; #@! TF.FileFunction,Plated,1,2,PTH
FMAT,2
INCH
; #@! TA.AperFunction,Plated,PTH,ViaDrill
T1C0.0098
; #@! TA.AperFunction,Plated,PTH,ComponentDrill
T2C0.0098
; #@! TA.AperFunction,Plated,PTH,ViaDrill
T3C0.0138
; #@! TA.AperFunction,Plated,PTH,ComponentDrill
T4C0.0390
; #@! TA.AperFunction,Plated,PTH,ComponentDrill
T5C0.0394
; #@! TA.AperFunction,Plated,PTH,ComponentDrill
T6C0.0512
%
G90
G05
T1
X-0.6553Y-0.0104
X-0.6553Y-0.2388
X-0.5451Y-0.0104
X-0.5451Y-0.2388
X-0.3754Y0.4116
X-0.3281Y0.1045
X-0.3281Y-0.0608
X-0.2219Y0.6636
X-0.0526Y0.3329
X-0.0211Y0.1754
X-0.0132Y0.3329
X0.0104Y-0.0963
X0.0144Y0.0691
X0.0163Y-0.1801
X0.1049Y0.2935
X0.117Y-0.2344
X0.117Y-0.1904
X0.1443Y0.2935
X0.3018Y0.199
X0.3018Y0.1596
X0.3018Y-0.065
X0.3805Y0.8526
X0.4396Y0.4195
T2
X-0.0565Y0.0297
X-0.0565Y-0.0136
X-0.0565Y-0.0569
X-0.0132Y0.0297
X-0.0132Y-0.0136
X-0.0132Y-0.0569
X0.0301Y0.0297
X0.0301Y-0.0136
X0.0301Y-0.0569
T3
X-1.811Y1.3405
X-1.811Y1.12
X-1.7323Y1.2106
X-1.6339Y1.2525
X-0.5118Y0.8071
X-0.3026Y0.8329
X-0.0575Y-0.1797
T4
X-1.7991Y0.3421
X-1.6219Y0.3421
T5
X-1.2166Y1.3838
X-1.2166Y1.2838
X-1.2166Y1.1838
X-1.2166Y1.0838
X-0.1465Y0.9808
X-0.0465Y0.9808
X0.0535Y0.9808
X0.1535Y0.9808
T6
X-1.8483Y0.2441
X-1.5723Y0.2441
M30
