%TF.GenerationSoftware,KiCad,Pcbnew,10.0.5*%
%TF.CreationDate,2026-08-10T16:58:06-08:00*%
%TF.ProjectId,RPI-RP2040-MINIMAL_R3-S1-rounded,5250492d-5250-4323-9034-302d4d494e49,R1*%
%TF.SameCoordinates,Original*%
%TF.FileFunction,Copper,L2,Bot*%
%TF.FilePolarity,Positive*%
%FSLAX46Y46*%
G04 Gerber Fmt 4.6, Leading zero omitted, Abs format (unit mm)*
G04 Created by KiCad (PCBNEW 10.0.5) date 2026-08-10 16:58:06*
%MOMM*%
%LPD*%
G01*
G04 APERTURE LIST*
%TA.AperFunction,ComponentPad*%
%ADD10C,2.100000*%
%TD*%
%TA.AperFunction,ComponentPad*%
%ADD11C,1.750000*%
%TD*%
%TA.AperFunction,ComponentPad*%
%ADD12C,0.600000*%
%TD*%
%TA.AperFunction,ComponentPad*%
%ADD13R,1.700000X1.700000*%
%TD*%
%TA.AperFunction,ComponentPad*%
%ADD14C,1.700000*%
%TD*%
%TA.AperFunction,ViaPad*%
%ADD15C,0.600000*%
%TD*%
%TA.AperFunction,Conductor*%
%ADD16C,0.400000*%
%TD*%
%TA.AperFunction,Conductor*%
%ADD17C,0.800000*%
%TD*%
G04 APERTURE END LIST*
D10*
%TO.P,ESTOP1,*%
%TO.N,*%
X-46947500Y6200000D03*
X-39937500Y6200000D03*
D11*
%TO.P,ESTOP1,1,1_1*%
%TO.N,GND*%
X-45697500Y8690000D03*
%TO.P,ESTOP1,2,2_2*%
%TO.N,/GPIO0*%
X-41197500Y8690000D03*
%TD*%
D12*
%TO.P,U3,57,GND_57*%
%TO.N,GND*%
X-1435000Y755000D03*
X-1435000Y-345000D03*
X-1435000Y-1445000D03*
X-335000Y755000D03*
X-335000Y-345000D03*
X-335000Y-1445000D03*
X765000Y755000D03*
X765000Y-345000D03*
X765000Y-1445000D03*
%TD*%
D13*
%TO.P,J3,1,Pin_1_1*%
%TO.N,GND*%
X-3721616Y24911911D03*
D14*
%TO.P,J3,2,Pin_2_2*%
%TO.N,/USB_D+*%
X-1181616Y24911911D03*
%TO.P,J3,3,Pin_3_3*%
%TO.N,/USB_D-*%
X1358384Y24911911D03*
%TO.P,J3,4,Pin_4_4*%
%TO.N,VBUS*%
X3898384Y24911911D03*
%TD*%
D13*
%TO.P,J4,1,Pin_1_1*%
%TO.N,/BRIDGE_GND*%
X-30900509Y35148300D03*
D14*
%TO.P,J4,2,Pin_2_2*%
%TO.N,/BRIDGE_USBD+*%
X-30900509Y32608300D03*
%TO.P,J4,3,Pin_3_3*%
%TO.N,/BRIDGE_USBD-*%
X-30900509Y30068300D03*
%TO.P,J4,4,Pin_4_4*%
%TO.N,/BRIDGE_VBUS*%
X-30900509Y27528300D03*
%TD*%
D15*
%TO.N,GND*%
X-16645000Y-6065000D03*
%TO.N,/BRIDGE_GND*%
X-46000000Y28448990D03*
X-46000000Y34048990D03*
%TO.N,GND*%
X-16645000Y-265000D03*
%TO.N,/BRIDGE_USBD+*%
X-41500000Y31813300D03*
%TO.N,+1V1*%
X365000Y1755000D03*
X264970Y-2445000D03*
%TO.N,GND*%
X-8335000Y2655000D03*
X2971990Y-5954006D03*
X-8335000Y-1545000D03*
X2665000Y7455000D03*
X-1335000Y8454992D03*
X-1460000Y-4565596D03*
X2972004Y-4835000D03*
X9665000Y21655000D03*
X-9535000Y10455000D03*
X11165000Y10655000D03*
X3665000Y7455000D03*
%TO.N,/BRIDGE_USBD+*%
X-44000000Y30748300D03*
%TO.N,GND*%
X-5635000Y16855000D03*
X-13000000Y20500000D03*
X-13845000Y-265000D03*
X7665000Y5055000D03*
X-13845000Y-6065000D03*
%TO.N,+1V1*%
X-535000Y4455006D03*
X415000Y-4574274D03*
%TO.N,GND*%
X7665000Y-1650000D03*
X7665000Y4055000D03*
X-7685000Y21155000D03*
X-335000Y8455000D03*
%TD*%
%TO.N,+1V1*%
D16*
X351464Y1758536D02*
G75*
G03*
X360000Y1755008I8536J8564D01*
G01*
X339985Y-4499259D02*
X415000Y-4574274D01*
%TO.N,/BRIDGE_USBD+*%
D17*
X-42646447Y31101854D02*
X-42088796Y31659505D01*
X-43500000Y30748300D02*
X-44000000Y30748300D01*
X-41500000Y31813300D02*
X-41717500Y31813300D01*
X-41717500Y31813300D02*
G75*
G03*
X-42088797Y31659506I0J-525100D01*
G01*
%TO.N,+1V1*%
D16*
X360000Y1755000D02*
X365000Y1755000D01*
X351464Y1758536D02*
X-90000Y2200000D01*
X264970Y-4318156D02*
X264970Y-2445000D01*
%TO.N,/BRIDGE_USBD+*%
D17*
X-42646447Y31101854D02*
G75*
G02*
X-43500000Y30748299I-853553J853546D01*
G01*
%TO.N,+1V1*%
D16*
X-535000Y4455006D02*
X-535000Y3274326D01*
X-535000Y3274326D02*
G75*
G03*
X-90007Y2199993I1519300J-26D01*
G01*
X264970Y-4318156D02*
G75*
G03*
X339961Y-4499283I256130J-44D01*
G01*
%TD*%
%TA.AperFunction,Conductor*%
%TO.N,/BRIDGE_GND*%
G36*
X-25040809Y39229393D02*
G01*
X-25004845Y39179893D01*
X-25000000Y39149300D01*
X-25000000Y23347300D01*
X-25018907Y23289109D01*
X-25068407Y23253145D01*
X-25099000Y23248300D01*
X-38069022Y23248300D01*
X-38124023Y23264985D01*
X-38173453Y23298013D01*
X-38173454Y23298014D01*
X-38173456Y23298015D01*
X-38337334Y23365894D01*
X-38511307Y23400500D01*
X-38511309Y23400500D01*
X-38688691Y23400500D01*
X-38688694Y23400500D01*
X-38862666Y23365894D01*
X-38862668Y23365894D01*
X-39026545Y23298015D01*
X-39039873Y23289109D01*
X-39075978Y23264985D01*
X-39130978Y23248300D01*
X-39569022Y23248300D01*
X-39624023Y23264985D01*
X-39673453Y23298013D01*
X-39673454Y23298014D01*
X-39673456Y23298015D01*
X-39837334Y23365894D01*
X-40011307Y23400500D01*
X-40011309Y23400500D01*
X-40188691Y23400500D01*
X-40188694Y23400500D01*
X-40362666Y23365894D01*
X-40362668Y23365894D01*
X-40526545Y23298015D01*
X-40539873Y23289109D01*
X-40575978Y23264985D01*
X-40630978Y23248300D01*
X-41069022Y23248300D01*
X-41124023Y23264985D01*
X-41173453Y23298013D01*
X-41173454Y23298014D01*
X-41173456Y23298015D01*
X-41337334Y23365894D01*
X-41511307Y23400500D01*
X-41511309Y23400500D01*
X-41688691Y23400500D01*
X-41688694Y23400500D01*
X-41862666Y23365894D01*
X-41862668Y23365894D01*
X-42026545Y23298015D01*
X-42039873Y23289109D01*
X-42075978Y23264985D01*
X-42130978Y23248300D01*
X-42569022Y23248300D01*
X-42624023Y23264985D01*
X-42673453Y23298013D01*
X-42673454Y23298014D01*
X-42673456Y23298015D01*
X-42837334Y23365894D01*
X-43011307Y23400500D01*
X-43011309Y23400500D01*
X-43188691Y23400500D01*
X-43188694Y23400500D01*
X-43362666Y23365894D01*
X-43362668Y23365894D01*
X-43526545Y23298015D01*
X-43539873Y23289109D01*
X-43575978Y23264985D01*
X-43630978Y23248300D01*
X-44069022Y23248300D01*
X-44124023Y23264985D01*
X-44173453Y23298013D01*
X-44173454Y23298014D01*
X-44173456Y23298015D01*
X-44337334Y23365894D01*
X-44511307Y23400500D01*
X-44511309Y23400500D01*
X-44688691Y23400500D01*
X-44688694Y23400500D01*
X-44862666Y23365894D01*
X-44862668Y23365894D01*
X-45026545Y23298015D01*
X-45039873Y23289109D01*
X-45075978Y23264985D01*
X-45130978Y23248300D01*
X-48628850Y23248300D01*
X-48680577Y23262889D01*
X-48698405Y23273814D01*
X-48710974Y23282945D01*
X-48842250Y23395067D01*
X-48853234Y23406051D01*
X-48909295Y23471689D01*
X-48965359Y23537331D01*
X-48974486Y23549893D01*
X-48985414Y23567727D01*
X-49000000Y23619451D01*
X-49000000Y27626844D01*
X-31901009Y27626844D01*
X-31901009Y27429757D01*
X-31862560Y27236466D01*
X-31862560Y27236464D01*
X-31787142Y27054387D01*
X-31787141Y27054386D01*
X-31677648Y26890518D01*
X-31538291Y26751161D01*
X-31374423Y26641668D01*
X-31192344Y26566249D01*
X-30999050Y26527800D01*
X-30999049Y26527800D01*
X-30801969Y26527800D01*
X-30801968Y26527800D01*
X-30608674Y26566249D01*
X-30426595Y26641668D01*
X-30262727Y26751161D01*
X-30123370Y26890518D01*
X-30013877Y27054386D01*
X-29938458Y27236465D01*
X-29900009Y27429759D01*
X-29900009Y27626841D01*
X-29938458Y27820135D01*
X-30013877Y28002214D01*
X-30123370Y28166082D01*
X-30262727Y28305439D01*
X-30426595Y28414932D01*
X-30426594Y28414932D01*
X-30426596Y28414933D01*
X-30608674Y28490351D01*
X-30801966Y28528800D01*
X-30801968Y28528800D01*
X-30999050Y28528800D01*
X-30999053Y28528800D01*
X-31192344Y28490351D01*
X-31192346Y28490351D01*
X-31374423Y28414933D01*
X-31538291Y28305439D01*
X-31538295Y28305436D01*
X-31677645Y28166086D01*
X-31677648Y28166082D01*
X-31787142Y28002214D01*
X-31862560Y27820137D01*
X-31862560Y27820135D01*
X-31901009Y27626844D01*
X-49000000Y27626844D01*
X-49000000Y30166844D01*
X-31901009Y30166844D01*
X-31901009Y29969757D01*
X-31862560Y29776466D01*
X-31862560Y29776464D01*
X-31787142Y29594387D01*
X-31787141Y29594386D01*
X-31677648Y29430518D01*
X-31538291Y29291161D01*
X-31374423Y29181668D01*
X-31192344Y29106249D01*
X-30999050Y29067800D01*
X-30999049Y29067800D01*
X-30801969Y29067800D01*
X-30801968Y29067800D01*
X-30608674Y29106249D01*
X-30426595Y29181668D01*
X-30262727Y29291161D01*
X-30123370Y29430518D01*
X-30013877Y29594386D01*
X-29938458Y29776465D01*
X-29900009Y29969759D01*
X-29900009Y30166841D01*
X-29938458Y30360135D01*
X-30013877Y30542214D01*
X-30123370Y30706082D01*
X-30262727Y30845439D01*
X-30426595Y30954932D01*
X-30426594Y30954932D01*
X-30426596Y30954933D01*
X-30608674Y31030351D01*
X-30801966Y31068800D01*
X-30801968Y31068800D01*
X-30999050Y31068800D01*
X-30999053Y31068800D01*
X-31192344Y31030351D01*
X-31192346Y31030351D01*
X-31374423Y30954933D01*
X-31538291Y30845439D01*
X-31538295Y30845436D01*
X-31677645Y30706086D01*
X-31677648Y30706082D01*
X-31787142Y30542214D01*
X-31862560Y30360137D01*
X-31862560Y30360135D01*
X-31901009Y30166844D01*
X-49000000Y30166844D01*
X-49000000Y30820775D01*
X-44550500Y30820775D01*
X-44550500Y30675826D01*
X-44512983Y30535811D01*
X-44440513Y30410290D01*
X-44440511Y30410288D01*
X-44440509Y30410285D01*
X-44338015Y30307791D01*
X-44338013Y30307790D01*
X-44338011Y30307788D01*
X-44212489Y30235318D01*
X-44212488Y30235318D01*
X-44212485Y30235316D01*
X-44072475Y30197800D01*
X-44072474Y30197800D01*
X-43384800Y30197800D01*
X-43384799Y30197800D01*
X-43156372Y30227874D01*
X-42933823Y30287506D01*
X-42720963Y30375676D01*
X-42521431Y30490875D01*
X-42338644Y30631133D01*
X-42322360Y30647419D01*
X-42322357Y30647420D01*
X-42308433Y30661344D01*
X-42308432Y30661344D01*
X-41735973Y31233805D01*
X-41681456Y31261581D01*
X-41665969Y31262800D01*
X-41427526Y31262800D01*
X-41427525Y31262800D01*
X-41287515Y31300316D01*
X-41287513Y31300318D01*
X-41287511Y31300318D01*
X-41161990Y31372788D01*
X-41161990Y31372789D01*
X-41161985Y31372791D01*
X-41059491Y31475285D01*
X-40987016Y31600815D01*
X-40949500Y31740825D01*
X-40949500Y31885775D01*
X-40987016Y32025785D01*
X-40987018Y32025788D01*
X-40987018Y32025790D01*
X-41059488Y32151311D01*
X-41059490Y32151313D01*
X-41059491Y32151315D01*
X-41161985Y32253809D01*
X-41161988Y32253811D01*
X-41161990Y32253813D01*
X-41287512Y32326283D01*
X-41287511Y32326283D01*
X-41328694Y32337318D01*
X-41427525Y32363800D01*
X-41650657Y32363800D01*
X-41717500Y32363800D01*
X-41802150Y32363800D01*
X-41802153Y32363800D01*
X-41969363Y32337318D01*
X-42130384Y32284999D01*
X-42281230Y32208140D01*
X-42418203Y32108623D01*
X-42426811Y32100016D01*
X-42426810Y32100015D01*
X-43031757Y31495070D01*
X-43031829Y31494999D01*
X-43031830Y31494997D01*
X-43032343Y31494485D01*
X-43039472Y31488029D01*
X-43127676Y31415642D01*
X-43143810Y31404862D01*
X-43240129Y31353379D01*
X-43258059Y31345952D01*
X-43362574Y31314248D01*
X-43381607Y31310462D01*
X-43481425Y31300630D01*
X-43495160Y31299277D01*
X-43504862Y31298800D01*
X-44072475Y31298800D01*
X-44134210Y31282259D01*
X-44212490Y31261283D01*
X-44338011Y31188813D01*
X-44440513Y31086311D01*
X-44512983Y30960790D01*
X-44550500Y30820775D01*
X-49000000Y30820775D01*
X-49000000Y32706844D01*
X-31901009Y32706844D01*
X-31901009Y32706841D01*
X-31901009Y32509759D01*
X-31866708Y32337316D01*
X-31862560Y32316466D01*
X-31862560Y32316464D01*
X-31787142Y32134387D01*
X-31787141Y32134386D01*
X-31677648Y31970518D01*
X-31538291Y31831161D01*
X-31374423Y31721668D01*
X-31192344Y31646249D01*
X-30999050Y31607800D01*
X-30999049Y31607800D01*
X-30801969Y31607800D01*
X-30801968Y31607800D01*
X-30608674Y31646249D01*
X-30426595Y31721668D01*
X-30262727Y31831161D01*
X-30123370Y31970518D01*
X-30013877Y32134386D01*
X-29938458Y32316465D01*
X-29900009Y32509759D01*
X-29900009Y32706841D01*
X-29938458Y32900135D01*
X-30013877Y33082214D01*
X-30123370Y33246082D01*
X-30262727Y33385439D01*
X-30426595Y33494932D01*
X-30426594Y33494932D01*
X-30426596Y33494933D01*
X-30608674Y33570351D01*
X-30801966Y33608800D01*
X-30801968Y33608800D01*
X-30999050Y33608800D01*
X-30999053Y33608800D01*
X-31192344Y33570351D01*
X-31192346Y33570351D01*
X-31374423Y33494933D01*
X-31538291Y33385439D01*
X-31538295Y33385436D01*
X-31677645Y33246086D01*
X-31677648Y33246082D01*
X-31787142Y33082214D01*
X-31862560Y32900137D01*
X-31862560Y32900135D01*
X-31901009Y32706844D01*
X-49000000Y32706844D01*
X-49000000Y38877224D01*
X-48985416Y38928945D01*
X-48974506Y38946748D01*
X-48965396Y38959287D01*
X-48853249Y39090596D01*
X-48842296Y39101549D01*
X-48710987Y39213696D01*
X-48698444Y39222809D01*
X-48680644Y39233716D01*
X-48628923Y39248300D01*
X-25099000Y39248300D01*
X-25040809Y39229393D01*
G37*
%TD.AperFunction*%
%TD*%
%TA.AperFunction,Conductor*%
%TO.N,GND*%
G36*
X8046914Y29145853D02*
G01*
X8059601Y29141730D01*
X8109101Y29105769D01*
X8109102Y29105768D01*
X8112097Y29101646D01*
X8131006Y29043456D01*
X8131006Y27091025D01*
X8166222Y26778463D01*
X8236217Y26471795D01*
X8339845Y26175649D01*
X8340070Y26174990D01*
X8340103Y26174909D01*
X8476573Y25891524D01*
X8476582Y25891508D01*
X8540513Y25789764D01*
X8643930Y25625178D01*
X8840046Y25379257D01*
X9062463Y25156840D01*
X9308384Y24960724D01*
X9574717Y24793375D01*
X9574722Y24793373D01*
X9574989Y24793229D01*
X9575055Y24793194D01*
X9576050Y24792733D01*
X9822688Y24673959D01*
X9822689Y24673958D01*
X9858110Y24656900D01*
X9858113Y24656899D01*
X9963344Y24620077D01*
X10147139Y24555764D01*
X10152220Y24553490D01*
X10152252Y24553481D01*
X10157677Y24552402D01*
X10461665Y24483018D01*
X10774233Y24447800D01*
X10891944Y24447800D01*
X13952405Y24447800D01*
X13994157Y24447800D01*
X13998016Y24447725D01*
X13998157Y24447720D01*
X14001960Y24447571D01*
X14005766Y24447347D01*
X14031912Y24445289D01*
X14176012Y24433948D01*
X14183714Y24433036D01*
X14183727Y24433034D01*
X14191366Y24431825D01*
X14198968Y24430314D01*
X14359326Y24391815D01*
X14366784Y24389712D01*
X14374169Y24387312D01*
X14381454Y24384624D01*
X14533787Y24321525D01*
X14540818Y24318284D01*
X14547739Y24314758D01*
X14554507Y24310967D01*
X14695094Y24224816D01*
X14701554Y24220499D01*
X14707813Y24215952D01*
X14713922Y24211137D01*
X14776611Y24157595D01*
X14839288Y24104063D01*
X14844996Y24098787D01*
X14850485Y24093298D01*
X14855761Y24087590D01*
X14962829Y23962231D01*
X14967640Y23956128D01*
X14972200Y23949852D01*
X14976510Y23943403D01*
X15047049Y23828293D01*
X15062665Y23802811D01*
X15066455Y23796042D01*
X15069978Y23789128D01*
X15073233Y23782067D01*
X15136321Y23629757D01*
X15139012Y23622465D01*
X15141406Y23615097D01*
X15143516Y23607615D01*
X15182006Y23447294D01*
X15183522Y23439672D01*
X15184733Y23432027D01*
X15185647Y23424306D01*
X15199042Y23254116D01*
X15199270Y23250241D01*
X15199423Y23246353D01*
X15199500Y23242460D01*
X15199500Y3601864D01*
X15199489Y3600389D01*
X15199467Y3598913D01*
X15199437Y3597546D01*
X15180039Y2922037D01*
X15179955Y2919899D01*
X15179845Y2917715D01*
X15179713Y2915565D01*
X15156112Y2588730D01*
X15155998Y2587303D01*
X15155882Y2585966D01*
X15155747Y2584523D01*
X15122531Y2257376D01*
X15122375Y2255949D01*
X15122205Y2254486D01*
X15122026Y2253037D01*
X15079456Y1928521D01*
X15079254Y1927064D01*
X15079049Y1925663D01*
X15078830Y1924236D01*
X15027044Y1603074D01*
X15026798Y1601621D01*
X15026557Y1600256D01*
X15026293Y1598823D01*
X14965393Y1281260D01*
X14965109Y1279835D01*
X14964809Y1278386D01*
X14964494Y1276922D01*
X14894608Y963333D01*
X14894283Y961922D01*
X14893943Y960495D01*
X14893579Y959018D01*
X14814885Y649889D01*
X14814511Y648463D01*
X14814095Y646925D01*
X14813687Y645464D01*
X14725933Y339701D01*
X14725575Y338480D01*
X14725197Y337224D01*
X14724836Y336052D01*
X14663294Y140383D01*
X14662919Y139216D01*
X14662516Y137988D01*
X14662107Y136769D01*
X14560621Y-159428D01*
X14560119Y-160858D01*
X14559603Y-162292D01*
X14559075Y-163723D01*
X14449577Y-453914D01*
X14449023Y-455350D01*
X14448448Y-456805D01*
X14447880Y-458210D01*
X14329903Y-743866D01*
X14329307Y-745280D01*
X14328689Y-746713D01*
X14328071Y-748116D01*
X14201891Y-1028669D01*
X14201243Y-1030078D01*
X14200591Y-1031469D01*
X14199932Y-1032847D01*
X14065514Y-1308471D01*
X14064796Y-1309915D01*
X14064067Y-1311350D01*
X14063387Y-1312663D01*
X13921088Y-1582711D01*
X13920348Y-1584088D01*
X13919590Y-1585473D01*
X13918842Y-1586816D01*
X13768521Y-1851631D01*
X13767751Y-1852963D01*
X13766992Y-1854253D01*
X13766184Y-1855602D01*
X13608181Y-2114639D01*
X13607374Y-2115939D01*
X13606545Y-2117252D01*
X13605686Y-2118590D01*
X13440008Y-2371894D01*
X13439177Y-2373143D01*
X13438300Y-2374439D01*
X13437434Y-2375698D01*
X13263617Y-2623949D01*
X13262842Y-2625039D01*
X13262079Y-2626098D01*
X13261319Y-2627139D01*
X13143865Y-2785764D01*
X13142570Y-2787474D01*
X13141237Y-2789195D01*
X13139956Y-2790813D01*
X12760323Y-3260388D01*
X12758292Y-3262820D01*
X12756223Y-3265218D01*
X12754135Y-3267562D01*
X12349083Y-3707977D01*
X12346908Y-3710267D01*
X12344707Y-3712512D01*
X12342463Y-3714729D01*
X11907480Y-4131014D01*
X11905766Y-4132615D01*
X11905040Y-4133279D01*
X11904007Y-4134221D01*
X11902243Y-4135791D01*
X11678789Y-4330060D01*
X11677636Y-4331048D01*
X11676440Y-4332056D01*
X11675183Y-4333098D01*
X11442522Y-4522715D01*
X11441258Y-4523727D01*
X11440045Y-4524683D01*
X11438839Y-4525619D01*
X11199857Y-4708066D01*
X11198573Y-4709030D01*
X11197336Y-4709943D01*
X11196093Y-4710845D01*
X10949954Y-4886680D01*
X10948901Y-4887422D01*
X10947862Y-4888144D01*
X10946766Y-4888895D01*
X10784051Y-4998757D01*
X10782299Y-4999913D01*
X10780520Y-5001060D01*
X10778763Y-5002167D01*
X10256098Y-5323834D01*
X10254095Y-5325035D01*
X10252038Y-5326235D01*
X10250011Y-5327385D01*
X9986378Y-5472973D01*
X9984994Y-5473723D01*
X9983557Y-5474487D01*
X9982206Y-5475192D01*
X9709916Y-5614627D01*
X9708512Y-5615332D01*
X9707098Y-5616028D01*
X9705734Y-5616687D01*
X9427861Y-5748216D01*
X9426453Y-5748869D01*
X9424987Y-5749535D01*
X9423597Y-5750153D01*
X9140482Y-5873560D01*
X9139071Y-5874162D01*
X9137682Y-5874742D01*
X9136269Y-5875320D01*
X8847938Y-5990530D01*
X8846453Y-5991109D01*
X8845041Y-5991647D01*
X8843678Y-5992155D01*
X8550465Y-6098970D01*
X8549032Y-6099480D01*
X8547542Y-6099997D01*
X8546110Y-6100481D01*
X8248375Y-6198722D01*
X8246987Y-6199169D01*
X8245543Y-6199622D01*
X8244048Y-6200078D01*
X7940448Y-6290080D01*
X7939280Y-6290418D01*
X7938109Y-6290750D01*
X7936901Y-6291083D01*
X7733457Y-6345823D01*
X7731745Y-6346267D01*
X7730085Y-6346682D01*
X7728394Y-6347089D01*
X7187591Y-6472238D01*
X7185114Y-6472778D01*
X7182631Y-6473286D01*
X7180207Y-6473750D01*
X6634496Y-6571291D01*
X6632045Y-6571698D01*
X6629554Y-6572079D01*
X6627060Y-6572428D01*
X6077044Y-6642286D01*
X6074565Y-6642569D01*
X6072121Y-6642817D01*
X6069623Y-6643039D01*
X5516745Y-6685025D01*
X5514250Y-6685182D01*
X5511738Y-6685309D01*
X5509266Y-6685402D01*
X4953217Y-6699450D01*
X4952010Y-6699474D01*
X4950657Y-6699491D01*
X4949416Y-6699499D01*
X4893690Y-6699499D01*
X4893642Y-6699500D01*
X-47994159Y-6699500D01*
X-47998052Y-6699423D01*
X-48001940Y-6699270D01*
X-48005815Y-6699042D01*
X-48176006Y-6685647D01*
X-48183727Y-6684733D01*
X-48191372Y-6683522D01*
X-48198994Y-6682006D01*
X-48359315Y-6643516D01*
X-48366797Y-6641406D01*
X-48374165Y-6639012D01*
X-48381457Y-6636321D01*
X-48533767Y-6573233D01*
X-48540834Y-6569975D01*
X-48547745Y-6566453D01*
X-48554520Y-6562658D01*
X-48695096Y-6476513D01*
X-48701545Y-6472206D01*
X-48707844Y-6467629D01*
X-48713915Y-6462843D01*
X-48753375Y-6429141D01*
X-48753378Y-6429139D01*
X-48753378Y-6429138D01*
X-48768542Y-6416187D01*
X-48768544Y-6416185D01*
X-48839290Y-6355761D01*
X-48844997Y-6350486D01*
X-48850487Y-6344996D01*
X-48855763Y-6339288D01*
X-48962829Y-6213932D01*
X-48967642Y-6207826D01*
X-48972201Y-6201551D01*
X-48976520Y-6195088D01*
X-49062667Y-6054507D01*
X-49066458Y-6047739D01*
X-49069984Y-6040818D01*
X-49073225Y-6033787D01*
X-49136328Y-5881445D01*
X-49139014Y-5874162D01*
X-49141412Y-5866782D01*
X-49143517Y-5859319D01*
X-49182013Y-5698972D01*
X-49183523Y-5691380D01*
X-49184739Y-5683701D01*
X-49185648Y-5676007D01*
X-49199046Y-5505773D01*
X-49199271Y-5501960D01*
X-49199426Y-5498012D01*
X-49199500Y-5494157D01*
X-49199500Y-3877965D01*
X-48050500Y-3877965D01*
X-48050500Y-4122033D01*
X-48012325Y-4363066D01*
X-47969426Y-4495093D01*
X-47936904Y-4595185D01*
X-47826108Y-4812637D01*
X-47770958Y-4888544D01*
X-47682655Y-5010083D01*
X-47510083Y-5182655D01*
X-47466822Y-5214085D01*
X-47466821Y-5214087D01*
X-47466820Y-5214087D01*
X-47312638Y-5326107D01*
X-47204016Y-5381452D01*
X-47095185Y-5436904D01*
X-46863178Y-5512288D01*
X-46863077Y-5512321D01*
X-46863074Y-5512321D01*
X-46863072Y-5512322D01*
X-46789672Y-5523947D01*
X-46622033Y-5550500D01*
X-46377970Y-5550500D01*
X-46377968Y-5550500D01*
X-46303920Y-5538771D01*
X-46136929Y-5512322D01*
X-46136929Y-5512321D01*
X-46136927Y-5512321D01*
X-46136924Y-5512321D01*
X-46136921Y-5512320D01*
X-46134345Y-5511912D01*
X-46129538Y-5509920D01*
X-45904815Y-5436904D01*
X-45687361Y-5326106D01*
X-45489917Y-5182655D01*
X-45317345Y-5010083D01*
X-45173894Y-4812639D01*
X-45063096Y-4595185D01*
X-44987679Y-4363076D01*
X-44982699Y-4331636D01*
X-44964033Y-4213785D01*
X-44949500Y-4122032D01*
X-44949500Y-3877966D01*
X-44976425Y-3707977D01*
X-44987678Y-3636928D01*
X-45015140Y-3552409D01*
X-45063096Y-3404815D01*
X-45173894Y-3187361D01*
X-45174209Y-3186928D01*
X-45219554Y-3124515D01*
X-45317345Y-2989917D01*
X-45489917Y-2817345D01*
X-45629489Y-2715940D01*
X-45629489Y-2715939D01*
X-45687360Y-2673893D01*
X-45687364Y-2673891D01*
X-45904815Y-2563096D01*
X-46136933Y-2487675D01*
X-46204452Y-2476983D01*
X-46262292Y-2467822D01*
X-46377968Y-2449500D01*
X-46377970Y-2449500D01*
X-46377973Y-2449500D01*
X-46622027Y-2449500D01*
X-46622030Y-2449500D01*
X-46622033Y-2449500D01*
X-46863068Y-2487675D01*
X-47095187Y-2563096D01*
X-47312637Y-2673890D01*
X-47510081Y-2817343D01*
X-47682657Y-2989919D01*
X-47826110Y-3187363D01*
X-47936904Y-3404813D01*
X-48012325Y-3636932D01*
X-48050500Y-3877965D01*
X-49199500Y-3877965D01*
X-49199500Y-2385691D01*
X-185530Y-2385691D01*
X-185530Y-2504309D01*
X-169778Y-2563096D01*
X-154829Y-2618886D01*
X-154824Y-2618897D01*
X-153933Y-2620440D01*
X-145045Y-2642876D01*
X-144842Y-2642807D01*
X-143414Y-2646992D01*
X-143305Y-2647266D01*
X-143272Y-2647407D01*
X-143272Y-2647409D01*
X-130396Y-2675701D01*
X-128196Y-2680929D01*
X-118664Y-2705521D01*
X-116443Y-2711886D01*
X-109889Y-2732949D01*
X-107998Y-2739908D01*
X-103239Y-2760343D01*
X-101908Y-2767123D01*
X-98192Y-2790296D01*
X-97433Y-2796133D01*
X-94561Y-2824892D01*
X-94218Y-2829337D01*
X-92235Y-2865685D01*
X-92118Y-2868656D01*
X-91015Y-2913733D01*
X-90988Y-2915414D01*
X-90580Y-2969955D01*
X-90577Y-2970622D01*
X-90538Y-3023421D01*
X-87443Y-3038939D01*
X-85530Y-3058303D01*
X-85530Y-3987550D01*
X-87108Y-4005155D01*
X-90296Y-4022793D01*
X-90296Y-4022796D01*
X-89110Y-4090221D01*
X-89033Y-4093112D01*
X-89023Y-4093403D01*
X-88887Y-4096394D01*
X-85678Y-4154928D01*
X-85530Y-4160346D01*
X-85530Y-4377905D01*
X-62220Y-4495092D01*
X-62218Y-4495104D01*
X-48306Y-4528688D01*
X-40801Y-4564109D01*
X-40654Y-4570029D01*
X-40653Y-4570045D01*
X-36346Y-4602768D01*
X-35500Y-4615685D01*
X-35500Y-4633582D01*
X-15418Y-4708529D01*
X-15419Y-4708529D01*
X-4799Y-4748163D01*
X-4799Y-4748164D01*
X54506Y-4850881D01*
X54507Y-4850882D01*
X54509Y-4850884D01*
X54511Y-4850887D01*
X138387Y-4934763D01*
X138389Y-4934764D01*
X138496Y-4934871D01*
X138746Y-4935057D01*
X140934Y-4936234D01*
X238369Y-4992488D01*
X240770Y-4993980D01*
X241111Y-4994071D01*
X241114Y-4994073D01*
X355691Y-5024774D01*
X355693Y-5024774D01*
X474307Y-5024774D01*
X474309Y-5024774D01*
X588886Y-4994073D01*
X588887Y-4994072D01*
X588889Y-4994071D01*
X588890Y-4994071D01*
X685473Y-4938308D01*
X688361Y-4936905D01*
X689145Y-4936389D01*
X694162Y-4933290D01*
X695460Y-4932540D01*
X700818Y-4925557D01*
X775489Y-4850887D01*
X775492Y-4850882D01*
X834797Y-4748164D01*
X834797Y-4748162D01*
X834799Y-4748160D01*
X865500Y-4633583D01*
X865500Y-4514965D01*
X834799Y-4400388D01*
X834797Y-4400385D01*
X834797Y-4400383D01*
X834796Y-4400382D01*
X834706Y-4400044D01*
X833224Y-4397658D01*
X776960Y-4300208D01*
X775783Y-4298020D01*
X775597Y-4297770D01*
X775490Y-4297663D01*
X775489Y-4297661D01*
X691613Y-4213785D01*
X691610Y-4213783D01*
X691608Y-4213781D01*
X691450Y-4213623D01*
X690382Y-4212776D01*
X690316Y-4212722D01*
X688993Y-4211775D01*
X686456Y-4209828D01*
X686746Y-4209449D01*
X677923Y-4202908D01*
X674419Y-4199630D01*
X666800Y-4193791D01*
X632136Y-4143461D01*
X631980Y-4142937D01*
X629631Y-4133304D01*
X627098Y-4120059D01*
X625962Y-4112565D01*
X623449Y-4090238D01*
X622979Y-4084629D01*
X621248Y-4053315D01*
X621108Y-4049342D01*
X620626Y-4017333D01*
X618060Y-4005155D01*
X617597Y-4002956D01*
X615470Y-3982546D01*
X615470Y-3058287D01*
X617386Y-3038904D01*
X620478Y-3023416D01*
X620478Y-3023414D01*
X620501Y-2989917D01*
X620515Y-2970368D01*
X620516Y-2970327D01*
X620515Y-2970257D01*
X620926Y-2915327D01*
X620950Y-2913839D01*
X622055Y-2868639D01*
X622172Y-2865686D01*
X624156Y-2829322D01*
X624499Y-2824876D01*
X625251Y-2817345D01*
X627370Y-2796126D01*
X628124Y-2790329D01*
X631847Y-2767109D01*
X633175Y-2760352D01*
X633178Y-2760343D01*
X637935Y-2739903D01*
X639820Y-2732963D01*
X646386Y-2711862D01*
X648597Y-2705528D01*
X658135Y-2680921D01*
X660333Y-2675701D01*
X673209Y-2647412D01*
X676953Y-2636305D01*
X684125Y-2620440D01*
X684764Y-2618893D01*
X684769Y-2618886D01*
X715470Y-2504309D01*
X715470Y-2385691D01*
X684769Y-2271114D01*
X684767Y-2271111D01*
X684767Y-2271109D01*
X684766Y-2271108D01*
X684676Y-2270770D01*
X683194Y-2268384D01*
X626930Y-2170934D01*
X625753Y-2168746D01*
X625567Y-2168496D01*
X625460Y-2168389D01*
X625459Y-2168387D01*
X541583Y-2084511D01*
X541580Y-2084509D01*
X541578Y-2084507D01*
X496145Y-2058276D01*
X475112Y-2034916D01*
X425322Y-2021574D01*
X425321Y-2021574D01*
X324279Y-1994500D01*
X324277Y-1994500D01*
X205662Y-1994500D01*
X205661Y-1994500D01*
X170599Y-2003894D01*
X135536Y-2013289D01*
X135535Y-2013288D01*
X91081Y-2025200D01*
X91078Y-2025201D01*
X-11637Y-2084505D01*
X-95527Y-2168395D01*
X-154829Y-2271109D01*
X-155106Y-2271844D01*
X-155653Y-2274185D01*
X-182169Y-2373148D01*
X-185530Y-2385691D01*
X-49199500Y-2385691D01*
X-49199500Y4514315D01*
X-985500Y4514315D01*
X-985500Y4395697D01*
X-954800Y4281123D01*
X-954799Y4281120D01*
X-954794Y4281109D01*
X-953903Y4279566D01*
X-945015Y4257130D01*
X-944812Y4257199D01*
X-943384Y4253014D01*
X-943275Y4252740D01*
X-943242Y4252599D01*
X-943242Y4252597D01*
X-930366Y4224305D01*
X-928166Y4219077D01*
X-918634Y4194485D01*
X-916413Y4188120D01*
X-909859Y4167057D01*
X-907968Y4160098D01*
X-903209Y4139663D01*
X-901878Y4132883D01*
X-898162Y4109710D01*
X-897403Y4103873D01*
X-894531Y4075114D01*
X-894188Y4070669D01*
X-892205Y4034321D01*
X-892088Y4031350D01*
X-890985Y3986273D01*
X-890958Y3984592D01*
X-890550Y3930051D01*
X-890547Y3929384D01*
X-890508Y3876585D01*
X-887413Y3861067D01*
X-885500Y3841703D01*
X-885500Y3151770D01*
X-853507Y2908759D01*
X-790068Y2671998D01*
X-696277Y2445564D01*
X-696266Y2445541D01*
X-695988Y2445061D01*
X-695989Y2445061D01*
X-695974Y2445038D01*
X-577438Y2239728D01*
X-573710Y2233271D01*
X-538794Y2187768D01*
X-424503Y2038821D01*
X-424499Y2038817D01*
X-370473Y1984789D01*
X-329902Y1944220D01*
X-317625Y1929271D01*
X-308750Y1916008D01*
X-269303Y1876612D01*
X-269048Y1876356D01*
X-228645Y1835710D01*
X-227706Y1834753D01*
X-209534Y1815969D01*
X-209515Y1815951D01*
X-194310Y1800237D01*
X-192572Y1798393D01*
X-166141Y1769599D01*
X-163479Y1766577D01*
X-143179Y1742549D01*
X-139743Y1738243D01*
X-124261Y1717689D01*
X-120449Y1712258D01*
X-109630Y1695691D01*
X-107891Y1693029D01*
X-104248Y1686992D01*
X-92701Y1666217D01*
X-89652Y1660267D01*
X-78841Y1637288D01*
X-78836Y1637278D01*
X-76531Y1632380D01*
X-63250Y1599331D01*
X-55967Y1585471D01*
X-54798Y1581110D01*
X4507Y1478392D01*
X4509Y1478390D01*
X4511Y1478387D01*
X88387Y1394511D01*
X88389Y1394510D01*
X88496Y1394403D01*
X88746Y1394217D01*
X90934Y1393040D01*
X188369Y1336786D01*
X190770Y1335294D01*
X191111Y1335203D01*
X191114Y1335201D01*
X305691Y1304500D01*
X305693Y1304500D01*
X424307Y1304500D01*
X424309Y1304500D01*
X538886Y1335201D01*
X538887Y1335202D01*
X538889Y1335203D01*
X538890Y1335203D01*
X635473Y1390966D01*
X638361Y1392369D01*
X639145Y1392885D01*
X644162Y1395984D01*
X645460Y1396734D01*
X650818Y1403717D01*
X725489Y1478387D01*
X735959Y1496522D01*
X784797Y1581110D01*
X784797Y1581112D01*
X784799Y1581114D01*
X815500Y1695691D01*
X815500Y1814309D01*
X784799Y1928886D01*
X784797Y1928889D01*
X784797Y1928891D01*
X784796Y1928892D01*
X784706Y1929230D01*
X783224Y1931616D01*
X726960Y2029066D01*
X725783Y2031254D01*
X725597Y2031504D01*
X725490Y2031611D01*
X725489Y2031613D01*
X641613Y2115489D01*
X641610Y2115491D01*
X641608Y2115493D01*
X596175Y2141724D01*
X575142Y2165084D01*
X538890Y2174798D01*
X529137Y2177412D01*
X504465Y2187768D01*
X500685Y2189997D01*
X500684Y2189998D01*
X500683Y2189998D01*
X496226Y2191559D01*
X496226Y2191558D01*
X495483Y2191818D01*
X495461Y2191826D01*
X488225Y2194358D01*
X471194Y2200318D01*
X465545Y2202491D01*
X441622Y2212543D01*
X435132Y2215550D01*
X415920Y2225312D01*
X409264Y2229024D01*
X391693Y2239728D01*
X385632Y2243732D01*
X366703Y2257261D01*
X361806Y2260997D01*
X339289Y2279309D01*
X335757Y2282322D01*
X308393Y2306794D01*
X306132Y2308880D01*
X273037Y2340382D01*
X271799Y2341580D01*
X232233Y2380576D01*
X231763Y2381043D01*
X193857Y2418905D01*
X180689Y2427696D01*
X165651Y2440031D01*
X161962Y2443720D01*
X159273Y2446517D01*
X156639Y2449366D01*
X154052Y2452277D01*
X53850Y2569598D01*
X53850Y2569599D01*
X46305Y2578433D01*
X41489Y2584542D01*
X36942Y2590801D01*
X32625Y2597261D01*
X-51011Y2733744D01*
X-54802Y2740512D01*
X-58328Y2747433D01*
X-61569Y2754464D01*
X-122830Y2902359D01*
X-125514Y2909635D01*
X-127914Y2917022D01*
X-130019Y2924485D01*
X-167391Y3080154D01*
X-168900Y3087740D01*
X-170116Y3095424D01*
X-171027Y3103121D01*
X-184046Y3268548D01*
X-184271Y3272364D01*
X-184426Y3276312D01*
X-184500Y3280167D01*
X-184500Y3841719D01*
X-182584Y3861102D01*
X-179492Y3876590D01*
X-179492Y3876592D01*
X-179455Y3929638D01*
X-179454Y3929679D01*
X-179455Y3929749D01*
X-179044Y3984679D01*
X-179020Y3986167D01*
X-177915Y4031367D01*
X-177798Y4034320D01*
X-175814Y4070684D01*
X-175471Y4075130D01*
X-172601Y4103865D01*
X-171846Y4109677D01*
X-168123Y4132897D01*
X-166795Y4139654D01*
X-166792Y4139663D01*
X-162035Y4160103D01*
X-160150Y4167043D01*
X-153584Y4188144D01*
X-151373Y4194478D01*
X-141835Y4219085D01*
X-139637Y4224305D01*
X-126761Y4252594D01*
X-123017Y4263701D01*
X-115845Y4279566D01*
X-115206Y4281113D01*
X-115201Y4281120D01*
X-84500Y4395697D01*
X-84500Y4514315D01*
X-115201Y4628892D01*
X-115203Y4628895D01*
X-115203Y4628897D01*
X-115204Y4628898D01*
X-115294Y4629236D01*
X-116776Y4631622D01*
X-173040Y4729072D01*
X-174217Y4731260D01*
X-174403Y4731510D01*
X-174510Y4731617D01*
X-174511Y4731619D01*
X-258387Y4815495D01*
X-258390Y4815497D01*
X-258392Y4815499D01*
X-303825Y4841730D01*
X-324858Y4865090D01*
X-374648Y4878432D01*
X-374649Y4878432D01*
X-475691Y4905506D01*
X-475693Y4905506D01*
X-594308Y4905506D01*
X-594309Y4905506D01*
X-629371Y4896112D01*
X-664434Y4886717D01*
X-664435Y4886718D01*
X-708889Y4874806D01*
X-708892Y4874805D01*
X-811607Y4815501D01*
X-895497Y4731611D01*
X-954799Y4628897D01*
X-955076Y4628162D01*
X-955317Y4627134D01*
X-955309Y4627024D01*
X-955489Y4626320D01*
X-985500Y4514315D01*
X-49199500Y4514315D01*
X-49199500Y6294490D01*
X-48148000Y6294490D01*
X-48148000Y6105512D01*
X-48118444Y5918895D01*
X-48118443Y5918891D01*
X-48118442Y5918887D01*
X-48105823Y5880051D01*
X-48060047Y5739168D01*
X-47974260Y5570801D01*
X-47863190Y5417927D01*
X-47729573Y5284310D01*
X-47576699Y5173240D01*
X-47408332Y5087453D01*
X-47228818Y5029125D01*
X-47228623Y5029061D01*
X-47228620Y5029061D01*
X-47228618Y5029060D01*
X-47228617Y5029060D01*
X-47228614Y5029059D01*
X-47126468Y5012881D01*
X-47041987Y4999500D01*
X-46853016Y4999500D01*
X-46853013Y4999500D01*
X-46778808Y5011254D01*
X-46666387Y5029059D01*
X-46666387Y5029060D01*
X-46666385Y5029060D01*
X-46666382Y5029060D01*
X-46666379Y5029061D01*
X-46663803Y5029469D01*
X-46658996Y5031461D01*
X-46486668Y5087453D01*
X-46318301Y5173240D01*
X-46165427Y5284310D01*
X-46031810Y5417927D01*
X-45920740Y5570801D01*
X-45834953Y5739168D01*
X-45776560Y5918882D01*
X-45765162Y5990848D01*
X-45756081Y6048182D01*
X-45747000Y6105515D01*
X-45747000Y6294489D01*
X-45747000Y6294490D01*
X-41138000Y6294490D01*
X-41138000Y6105512D01*
X-41108444Y5918895D01*
X-41108443Y5918891D01*
X-41108442Y5918887D01*
X-41095823Y5880051D01*
X-41050047Y5739168D01*
X-40964260Y5570801D01*
X-40853190Y5417927D01*
X-40719573Y5284310D01*
X-40566699Y5173240D01*
X-40398332Y5087453D01*
X-40218818Y5029125D01*
X-40218623Y5029061D01*
X-40218620Y5029061D01*
X-40218618Y5029060D01*
X-40218617Y5029060D01*
X-40218614Y5029059D01*
X-40116468Y5012881D01*
X-40031987Y4999500D01*
X-39843016Y4999500D01*
X-39843013Y4999500D01*
X-39768808Y5011254D01*
X-39656387Y5029059D01*
X-39656387Y5029060D01*
X-39656385Y5029060D01*
X-39656382Y5029060D01*
X-39656379Y5029061D01*
X-39653803Y5029469D01*
X-39648996Y5031461D01*
X-39476668Y5087453D01*
X-39308301Y5173240D01*
X-39155427Y5284310D01*
X-39021810Y5417927D01*
X-38910740Y5570801D01*
X-38824953Y5739168D01*
X-38766560Y5918882D01*
X-38755162Y5990848D01*
X-38746081Y6048182D01*
X-38737000Y6105515D01*
X-38737000Y6294489D01*
X-38766558Y6481110D01*
X-38766559Y6481114D01*
X-38774098Y6504316D01*
X-38824953Y6660832D01*
X-38910740Y6829199D01*
X-39021810Y6982073D01*
X-39155427Y7115690D01*
X-39155431Y7115693D01*
X-39155433Y7115695D01*
X-39302000Y7222183D01*
X-39302268Y7222412D01*
X-39308301Y7226760D01*
X-39308302Y7226761D01*
X-39308304Y7226762D01*
X-39308305Y7226763D01*
X-39308311Y7226767D01*
X-39308567Y7226896D01*
X-39476666Y7312546D01*
X-39476667Y7312547D01*
X-39476668Y7312547D01*
X-39528722Y7329461D01*
X-39588000Y7348722D01*
X-39618201Y7358536D01*
X-39618201Y7358535D01*
X-39656390Y7370943D01*
X-39656387Y7370943D01*
X-39843013Y7400500D01*
X-39843016Y7400500D01*
X-39843019Y7400500D01*
X-40031981Y7400500D01*
X-40031984Y7400500D01*
X-40031988Y7400500D01*
X-40218613Y7370943D01*
X-40218619Y7370942D01*
X-40398327Y7312551D01*
X-40398330Y7312549D01*
X-40566697Y7226763D01*
X-40566703Y7226759D01*
X-40719567Y7115696D01*
X-40853196Y6982067D01*
X-40964259Y6829203D01*
X-40964263Y6829197D01*
X-41050049Y6660830D01*
X-41050051Y6660827D01*
X-41108443Y6481115D01*
X-41138000Y6294490D01*
X-45747000Y6294490D01*
X-45776558Y6481110D01*
X-45776559Y6481114D01*
X-45784098Y6504316D01*
X-45834953Y6660832D01*
X-45920740Y6829199D01*
X-46031810Y6982073D01*
X-46165427Y7115690D01*
X-46165431Y7115693D01*
X-46165433Y7115695D01*
X-46312000Y7222183D01*
X-46312268Y7222412D01*
X-46318301Y7226760D01*
X-46318302Y7226761D01*
X-46318304Y7226762D01*
X-46318305Y7226763D01*
X-46318311Y7226767D01*
X-46318567Y7226896D01*
X-46486672Y7312549D01*
X-46486675Y7312551D01*
X-46666387Y7370943D01*
X-46666386Y7370943D01*
X-46853012Y7400500D01*
X-46853016Y7400500D01*
X-46853019Y7400500D01*
X-47041981Y7400500D01*
X-47041984Y7400500D01*
X-47041988Y7400500D01*
X-47228613Y7370943D01*
X-47228619Y7370942D01*
X-47408327Y7312551D01*
X-47408330Y7312549D01*
X-47576697Y7226763D01*
X-47576703Y7226759D01*
X-47729567Y7115696D01*
X-47863196Y6982067D01*
X-47974259Y6829203D01*
X-47974263Y6829197D01*
X-48060049Y6660830D01*
X-48060051Y6660827D01*
X-48118443Y6481115D01*
X-48148000Y6294490D01*
X-49199500Y6294490D01*
X-49199500Y7438990D01*
X11449500Y7438990D01*
X11449500Y7194922D01*
X11487675Y6953889D01*
X11563096Y6721770D01*
X11594147Y6660827D01*
X11673892Y6504318D01*
X11690748Y6481118D01*
X11817345Y6306872D01*
X11989917Y6134300D01*
X11989920Y6134298D01*
X11989922Y6134296D01*
X12047554Y6092425D01*
X12133367Y6030079D01*
X12133368Y6030077D01*
X12169231Y6004022D01*
X12187358Y5990851D01*
X12187360Y5990849D01*
X12187362Y5990848D01*
X12296088Y5935450D01*
X12404815Y5880051D01*
X12636822Y5804667D01*
X12636923Y5804634D01*
X12636926Y5804634D01*
X12636928Y5804633D01*
X12710328Y5793008D01*
X12877967Y5766455D01*
X13122030Y5766455D01*
X13122032Y5766455D01*
X13196080Y5778184D01*
X13363071Y5804633D01*
X13363071Y5804634D01*
X13363073Y5804634D01*
X13363076Y5804634D01*
X13363079Y5804635D01*
X13365655Y5805043D01*
X13370462Y5807035D01*
X13595185Y5880051D01*
X13812639Y5990849D01*
X14010083Y6134300D01*
X14182655Y6306872D01*
X14326106Y6504316D01*
X14436904Y6721770D01*
X14512321Y6953879D01*
X14512322Y6953884D01*
X14550500Y7194925D01*
X14550500Y7438986D01*
X14550499Y7438990D01*
X14512323Y7680021D01*
X14512322Y7680027D01*
X14512321Y7680031D01*
X14436904Y7912140D01*
X14373649Y8036286D01*
X14326107Y8129593D01*
X14271869Y8204245D01*
X14182655Y8327038D01*
X14010083Y8499610D01*
X14010079Y8499613D01*
X13887052Y8588998D01*
X13887049Y8588999D01*
X13887048Y8589000D01*
X13812642Y8643060D01*
X13812636Y8643064D01*
X13595185Y8753859D01*
X13363066Y8829280D01*
X13122033Y8867455D01*
X13122030Y8867455D01*
X13122027Y8867455D01*
X12877973Y8867455D01*
X12877970Y8867455D01*
X12877967Y8867455D01*
X12636932Y8829280D01*
X12404813Y8753859D01*
X12187363Y8643065D01*
X11989919Y8499612D01*
X11817343Y8327036D01*
X11673890Y8129592D01*
X11563096Y7912142D01*
X11487675Y7680023D01*
X11449500Y7438990D01*
X-49199500Y7438990D01*
X-49199500Y8791009D01*
X-42223000Y8791009D01*
X-42223000Y8791006D01*
X-42223000Y8588995D01*
X-42183592Y8390876D01*
X-42183591Y8390873D01*
X-42183589Y8390868D01*
X-42106289Y8204248D01*
X-42106288Y8204247D01*
X-42106286Y8204244D01*
X-42056406Y8129592D01*
X-41994058Y8036282D01*
X-41851218Y7893442D01*
X-41683256Y7781214D01*
X-41496627Y7703909D01*
X-41298503Y7664500D01*
X-41298502Y7664500D01*
X-41096498Y7664500D01*
X-41096497Y7664500D01*
X-40898373Y7703909D01*
X-40711744Y7781214D01*
X-40543782Y7893442D01*
X-40400942Y8036282D01*
X-40288714Y8204244D01*
X-40211409Y8390873D01*
X-40172000Y8588997D01*
X-40172000Y8791003D01*
X-40211409Y8989127D01*
X-40288714Y9175756D01*
X-40400942Y9343718D01*
X-40543782Y9486558D01*
X-40543786Y9486561D01*
X-40543789Y9486564D01*
X-40654604Y9560608D01*
X-40667109Y9576470D01*
X-40711738Y9598784D01*
X-40711745Y9598787D01*
X-40898370Y9676090D01*
X-40898376Y9676092D01*
X-40997436Y9695796D01*
X-41096493Y9715500D01*
X-41096495Y9715500D01*
X-41096497Y9715500D01*
X-41298503Y9715500D01*
X-41298506Y9715500D01*
X-41298509Y9715500D01*
X-41447096Y9685944D01*
X-41496625Y9676092D01*
X-41496631Y9676090D01*
X-41496634Y9676089D01*
X-41683256Y9598788D01*
X-41851212Y9486564D01*
X-41994064Y9343712D01*
X-42106288Y9175756D01*
X-42183589Y8989134D01*
X-42183592Y8989124D01*
X-42223000Y8791009D01*
X-49199500Y8791009D01*
X-49199500Y17438990D01*
X-23550500Y17438990D01*
X-23550500Y17194922D01*
X-23512325Y16953889D01*
X-23436904Y16721770D01*
X-23326108Y16504318D01*
X-23308128Y16479571D01*
X-23182655Y16306872D01*
X-23010083Y16134300D01*
X-23010080Y16134298D01*
X-23010078Y16134296D01*
X-22952446Y16092425D01*
X-22866633Y16030079D01*
X-22866632Y16030077D01*
X-22830769Y16004022D01*
X-22812638Y15990848D01*
X-22703912Y15935450D01*
X-22595185Y15880051D01*
X-22363178Y15804667D01*
X-22363077Y15804634D01*
X-22363074Y15804634D01*
X-22363072Y15804633D01*
X-22289672Y15793008D01*
X-22122033Y15766455D01*
X-21877970Y15766455D01*
X-21877968Y15766455D01*
X-21803920Y15778184D01*
X-21636929Y15804633D01*
X-21636929Y15804634D01*
X-21636927Y15804634D01*
X-21636924Y15804634D01*
X-21636921Y15804635D01*
X-21634345Y15805043D01*
X-21629538Y15807035D01*
X-21404815Y15880051D01*
X-21187361Y15990849D01*
X-20989917Y16134300D01*
X-20817345Y16306872D01*
X-20673894Y16504316D01*
X-20563096Y16721770D01*
X-20487679Y16953879D01*
X-20487677Y16953889D01*
X-20449500Y17194925D01*
X-20449500Y17438989D01*
X-20472407Y17583611D01*
X-20487678Y17680027D01*
X-20515140Y17764546D01*
X-20563096Y17912140D01*
X-20618495Y18020867D01*
X-20673893Y18129593D01*
X-20817344Y18327036D01*
X-20817345Y18327038D01*
X-20989917Y18499610D01*
X-20989921Y18499613D01*
X-20989923Y18499615D01*
X-21079376Y18564607D01*
X-21187360Y18643061D01*
X-21187361Y18643062D01*
X-21187363Y18643063D01*
X-21404815Y18753859D01*
X-21636934Y18829280D01*
X-21877967Y18867455D01*
X-21877970Y18867455D01*
X-21877973Y18867455D01*
X-22122027Y18867455D01*
X-22122030Y18867455D01*
X-22122033Y18867455D01*
X-22363068Y18829280D01*
X-22595187Y18753859D01*
X-22812637Y18643065D01*
X-23010081Y18499612D01*
X-23182657Y18327036D01*
X-23326110Y18129592D01*
X-23436904Y17912142D01*
X-23512325Y17680023D01*
X-23550500Y17438990D01*
X-49199500Y17438990D01*
X-49199500Y19242459D01*
X-49199424Y19246326D01*
X-49199272Y19250214D01*
X-49199046Y19254072D01*
X-49196386Y19287862D01*
X-49185647Y19424323D01*
X-49184736Y19432019D01*
X-49183524Y19439671D01*
X-49182010Y19447284D01*
X-49143518Y19607615D01*
X-49141406Y19615100D01*
X-49139012Y19622467D01*
X-49136323Y19629757D01*
X-49073230Y19782077D01*
X-49069976Y19789135D01*
X-49066466Y19796024D01*
X-49062668Y19802807D01*
X-48976506Y19943412D01*
X-48972191Y19949868D01*
X-48967649Y19956119D01*
X-48962839Y19962220D01*
X-48855757Y20087597D01*
X-48850490Y20093296D01*
X-48844990Y20098796D01*
X-48839309Y20104047D01*
X-48713913Y20211146D01*
X-48707819Y20215949D01*
X-48701568Y20220491D01*
X-48695112Y20224806D01*
X-48554500Y20310973D01*
X-48547724Y20314766D01*
X-48540835Y20318276D01*
X-48533777Y20321530D01*
X-48476123Y20345411D01*
X-48381450Y20384626D01*
X-48374167Y20387312D01*
X-48366800Y20389706D01*
X-48359323Y20391816D01*
X-48198977Y20430312D01*
X-48191371Y20431824D01*
X-48183719Y20433036D01*
X-48176022Y20433947D01*
X-48028947Y20445522D01*
X-48005769Y20447346D01*
X-48001961Y20447571D01*
X-47998017Y20447726D01*
X-47994157Y20447800D01*
X-46407204Y20447800D01*
X-46403622Y20447735D01*
X-46400004Y20447604D01*
X-46396423Y20447410D01*
X-46305528Y20440780D01*
X-46091831Y20460501D01*
X-46091823Y20460503D01*
X-46091666Y20460544D01*
X-46047312Y20472170D01*
X-45887041Y20514177D01*
X-45884525Y20514757D01*
X-45883298Y20515114D01*
X-45879752Y20516918D01*
X-45688341Y20602544D01*
X-45545953Y20696843D01*
X-45506021Y20723287D01*
X-45505673Y20722761D01*
X-45493011Y20730584D01*
X-45480749Y20736285D01*
X-45420012Y20743670D01*
X-45366538Y20713949D01*
X-45360076Y20707004D01*
X-45341090Y20677451D01*
X-45299878Y20577954D01*
X-45298560Y20574269D01*
X-45200017Y20426790D01*
X-45199473Y20425976D01*
X-45199462Y20425963D01*
X-45074038Y20300538D01*
X-45074035Y20300536D01*
X-44926547Y20201987D01*
X-44762666Y20134106D01*
X-44588691Y20099500D01*
X-44588690Y20099500D01*
X-44411310Y20099500D01*
X-44411309Y20099500D01*
X-44237334Y20134106D01*
X-44073453Y20201987D01*
X-43925965Y20300536D01*
X-43881090Y20345411D01*
X-43856039Y20363613D01*
X-43844147Y20369673D01*
X-43783720Y20379244D01*
X-43778679Y20378446D01*
X-43724167Y20350668D01*
X-43674043Y20300542D01*
X-43674040Y20300539D01*
X-43674038Y20300538D01*
X-43674035Y20300536D01*
X-43526547Y20201987D01*
X-43362666Y20134106D01*
X-43188691Y20099500D01*
X-43188690Y20099500D01*
X-43011310Y20099500D01*
X-43011309Y20099500D01*
X-42837334Y20134106D01*
X-42673453Y20201987D01*
X-42525965Y20300536D01*
X-42431091Y20395410D01*
X-42406040Y20413613D01*
X-42394147Y20419672D01*
X-42333720Y20429243D01*
X-42328684Y20428446D01*
X-42274168Y20400669D01*
X-42174035Y20300536D01*
X-42026547Y20201987D01*
X-41862666Y20134106D01*
X-41688691Y20099500D01*
X-41688690Y20099500D01*
X-41511310Y20099500D01*
X-41511309Y20099500D01*
X-41337334Y20134106D01*
X-41173453Y20201987D01*
X-41025965Y20300536D01*
X-40931091Y20395410D01*
X-40906040Y20413613D01*
X-40894147Y20419672D01*
X-40833720Y20429243D01*
X-40828684Y20428446D01*
X-40774168Y20400669D01*
X-40674035Y20300536D01*
X-40526547Y20201987D01*
X-40362666Y20134106D01*
X-40188691Y20099500D01*
X-40188690Y20099500D01*
X-40011310Y20099500D01*
X-40011309Y20099500D01*
X-39837334Y20134106D01*
X-39673453Y20201987D01*
X-39525965Y20300536D01*
X-39431091Y20395410D01*
X-39406040Y20413613D01*
X-39394147Y20419672D01*
X-39333720Y20429243D01*
X-39328684Y20428446D01*
X-39274168Y20400669D01*
X-39174035Y20300536D01*
X-39026547Y20201987D01*
X-38862666Y20134106D01*
X-38688691Y20099500D01*
X-38688690Y20099500D01*
X-38511310Y20099500D01*
X-38511309Y20099500D01*
X-38337334Y20134106D01*
X-38173453Y20201987D01*
X-38025965Y20300536D01*
X-37900536Y20425965D01*
X-37801987Y20573453D01*
X-37734106Y20737334D01*
X-37704185Y20887764D01*
X-37693463Y20916822D01*
X-37687897Y20926760D01*
X-37642966Y20968292D01*
X-37582205Y20975481D01*
X-37582166Y20975473D01*
X-37581218Y20975284D01*
X-37535902Y20953152D01*
X-37533240Y20950855D01*
X-37519538Y20936383D01*
X-37466146Y20867195D01*
X-37466143Y20867192D01*
X-37466139Y20867187D01*
X-37466130Y20867178D01*
X-37466123Y20867172D01*
X-37466106Y20867154D01*
X-37309010Y20721030D01*
X-37309001Y20721022D01*
X-37308994Y20721017D01*
X-37308975Y20721005D01*
X-37308973Y20721003D01*
X-37142672Y20610872D01*
X-37130070Y20602527D01*
X-37130069Y20602527D01*
X-37130066Y20602525D01*
X-36934162Y20514895D01*
X-36934158Y20514894D01*
X-36934155Y20514893D01*
X-36934153Y20514893D01*
X-36934134Y20514886D01*
X-36933831Y20514808D01*
X-36729671Y20461305D01*
X-36727112Y20460544D01*
X-36724976Y20460233D01*
X-36724757Y20460198D01*
X-36722037Y20460073D01*
X-36637823Y20452304D01*
X-36517952Y20441246D01*
X-36512672Y20440482D01*
X-36507285Y20441183D01*
X-36421981Y20447408D01*
X-36418457Y20447602D01*
X-36414779Y20447736D01*
X-36411203Y20447800D01*
X-17979715Y20447800D01*
X-17979714Y20447800D01*
X-17667147Y20483018D01*
X-17360487Y20553010D01*
X-17063593Y20656898D01*
X-16780198Y20793374D01*
X-16513864Y20960723D01*
X-16267943Y21156839D01*
X-16045526Y21379256D01*
X-15849410Y21625177D01*
X-15682061Y21891511D01*
X-15545585Y22174906D01*
X-15441697Y22471800D01*
X-15371705Y22778460D01*
X-15336487Y23091027D01*
X-15336487Y23242460D01*
X-15336411Y23246325D01*
X-15336259Y23250214D01*
X-15336033Y23254075D01*
X-15332741Y23295895D01*
X-15322634Y23424322D01*
X-15321723Y23432019D01*
X-15320511Y23439672D01*
X-15318997Y23447284D01*
X-15280503Y23607623D01*
X-15278393Y23615100D01*
X-15275999Y23622467D01*
X-15273310Y23629757D01*
X-15210217Y23782077D01*
X-15206963Y23789135D01*
X-15203453Y23796024D01*
X-15199655Y23802807D01*
X-15184037Y23828293D01*
X-15113493Y23943412D01*
X-15109178Y23949868D01*
X-15104636Y23956119D01*
X-15099826Y23962220D01*
X-15022216Y24053090D01*
X-14992740Y24087602D01*
X-14987474Y24093298D01*
X-14981977Y24098796D01*
X-14976296Y24104047D01*
X-14850900Y24211146D01*
X-14844806Y24215949D01*
X-14838555Y24220491D01*
X-14832099Y24224806D01*
X-14691487Y24310973D01*
X-14684711Y24314766D01*
X-14677822Y24318276D01*
X-14670764Y24321530D01*
X-14518437Y24384626D01*
X-14511154Y24387312D01*
X-14503787Y24389706D01*
X-14496310Y24391816D01*
X-14335964Y24430312D01*
X-14328358Y24431824D01*
X-14320706Y24433036D01*
X-14313009Y24433947D01*
X-14165934Y24445522D01*
X-14142756Y24447346D01*
X-14138948Y24447571D01*
X-14135004Y24447726D01*
X-14131144Y24447800D01*
X-10911222Y24447800D01*
X-10911221Y24447800D01*
X-10598654Y24483018D01*
X-10291994Y24553010D01*
X-10284103Y24555771D01*
X-10272287Y24559906D01*
X-9995100Y24656898D01*
X-9711705Y24793374D01*
X-9445371Y24960723D01*
X-9383009Y25010455D01*
X-2182116Y25010455D01*
X-2182116Y24813368D01*
X-2150992Y24656899D01*
X-2145569Y24629640D01*
X-2145569Y24629636D01*
X-2143668Y24620074D01*
X-2071269Y24445289D01*
X-2068249Y24437998D01*
X-2063716Y24431214D01*
X-1958755Y24274129D01*
X-1819398Y24134772D01*
X-1655530Y24025279D01*
X-1473451Y23949860D01*
X-1280157Y23911411D01*
X-1280156Y23911411D01*
X-1083076Y23911411D01*
X-1083075Y23911411D01*
X-889781Y23949860D01*
X-707702Y24025279D01*
X-543834Y24134772D01*
X-404477Y24274129D01*
X-294984Y24437997D01*
X-219565Y24620076D01*
X-181116Y24813370D01*
X-181116Y25010452D01*
X-181117Y25010455D01*
X357884Y25010455D01*
X357884Y24813368D01*
X389008Y24656899D01*
X394431Y24629640D01*
X394431Y24629636D01*
X396332Y24620074D01*
X468731Y24445289D01*
X471751Y24437998D01*
X476284Y24431214D01*
X581245Y24274129D01*
X720602Y24134772D01*
X884470Y24025279D01*
X1066549Y23949860D01*
X1259843Y23911411D01*
X1259844Y23911411D01*
X1456924Y23911411D01*
X1456925Y23911411D01*
X1650219Y23949860D01*
X1832298Y24025279D01*
X1996166Y24134772D01*
X2135523Y24274129D01*
X2245016Y24437997D01*
X2320435Y24620076D01*
X2358884Y24813370D01*
X2358884Y25010452D01*
X2358883Y25010455D01*
X2897884Y25010455D01*
X2897884Y24813368D01*
X2929008Y24656899D01*
X2934431Y24629640D01*
X2934431Y24629636D01*
X2936332Y24620074D01*
X3008731Y24445289D01*
X3011751Y24437998D01*
X3016284Y24431214D01*
X3121245Y24274129D01*
X3260602Y24134772D01*
X3424470Y24025279D01*
X3606549Y23949860D01*
X3799843Y23911411D01*
X3799844Y23911411D01*
X3996924Y23911411D01*
X3996925Y23911411D01*
X4190219Y23949860D01*
X4372298Y24025279D01*
X4536166Y24134772D01*
X4675523Y24274129D01*
X4785016Y24437997D01*
X4860435Y24620076D01*
X4898884Y24813370D01*
X4898884Y25010452D01*
X4860435Y25203746D01*
X4785016Y25385825D01*
X4675523Y25549693D01*
X4536166Y25689050D01*
X4536162Y25689053D01*
X4536161Y25689054D01*
X4385440Y25789762D01*
X4385438Y25789764D01*
X4372300Y25798543D01*
X4372294Y25798546D01*
X4190220Y25873962D01*
X4190219Y25873962D01*
X4125788Y25886779D01*
X3996929Y25912411D01*
X3996927Y25912411D01*
X3996925Y25912411D01*
X3799843Y25912411D01*
X3799840Y25912411D01*
X3799839Y25912411D01*
X3718411Y25896214D01*
X3616111Y25875864D01*
X3616104Y25875864D01*
X3606545Y25873963D01*
X3424472Y25798546D01*
X3424471Y25798546D01*
X3260604Y25689053D01*
X3121242Y25549691D01*
X3011749Y25385824D01*
X3011749Y25385823D01*
X2936334Y25203753D01*
X2936334Y25203752D01*
X2936333Y25203750D01*
X2936333Y25203748D01*
X2936333Y25203746D01*
X2897884Y25010455D01*
X2358883Y25010455D01*
X2352504Y25042523D01*
X2320435Y25203746D01*
X2245016Y25385825D01*
X2135523Y25549693D01*
X1996166Y25689050D01*
X1996162Y25689053D01*
X1996161Y25689054D01*
X1845440Y25789762D01*
X1845438Y25789764D01*
X1832300Y25798543D01*
X1832294Y25798546D01*
X1650220Y25873962D01*
X1650219Y25873962D01*
X1585788Y25886779D01*
X1456929Y25912411D01*
X1456927Y25912411D01*
X1456925Y25912411D01*
X1259843Y25912411D01*
X1259840Y25912411D01*
X1259839Y25912411D01*
X1178411Y25896214D01*
X1076111Y25875864D01*
X1076104Y25875864D01*
X1066545Y25873963D01*
X884472Y25798546D01*
X884471Y25798546D01*
X720604Y25689053D01*
X581242Y25549691D01*
X471749Y25385824D01*
X471749Y25385823D01*
X396334Y25203753D01*
X396334Y25203752D01*
X396333Y25203750D01*
X396333Y25203748D01*
X396333Y25203746D01*
X357884Y25010455D01*
X-181117Y25010455D01*
X-187496Y25042523D01*
X-219565Y25203746D01*
X-294984Y25385825D01*
X-404477Y25549693D01*
X-543834Y25689050D01*
X-543838Y25689053D01*
X-543839Y25689054D01*
X-694560Y25789762D01*
X-694562Y25789764D01*
X-707700Y25798543D01*
X-707706Y25798546D01*
X-889780Y25873962D01*
X-889781Y25873962D01*
X-954212Y25886779D01*
X-1083071Y25912411D01*
X-1083073Y25912411D01*
X-1083075Y25912411D01*
X-1280157Y25912411D01*
X-1280160Y25912411D01*
X-1280161Y25912411D01*
X-1361589Y25896214D01*
X-1463889Y25875864D01*
X-1463896Y25875864D01*
X-1473455Y25873963D01*
X-1655528Y25798546D01*
X-1655529Y25798546D01*
X-1819396Y25689053D01*
X-1958758Y25549691D01*
X-2068251Y25385824D01*
X-2068251Y25385823D01*
X-2143666Y25203753D01*
X-2143666Y25203752D01*
X-2143667Y25203750D01*
X-2143667Y25203748D01*
X-2143667Y25203746D01*
X-2182116Y25010455D01*
X-9383009Y25010455D01*
X-9199450Y25156839D01*
X-8977033Y25379256D01*
X-8780917Y25625177D01*
X-8613568Y25891511D01*
X-8477092Y26174906D01*
X-8373204Y26471800D01*
X-8303212Y26778460D01*
X-8267994Y27091027D01*
X-8267994Y27248300D01*
X-8267994Y27295895D01*
X-8267994Y29036016D01*
X-8263151Y29066602D01*
X-8259029Y29079291D01*
X-8223071Y29128790D01*
X-8222472Y29129225D01*
X-8218931Y29131796D01*
X-8160751Y29150696D01*
X8016326Y29150696D01*
X8046914Y29145853D01*
G37*
%TD.AperFunction*%
%TD*%
%TA.AperFunction,Conductor*%
%TO.N,+1V1*%
G36*
X83964Y2308888D02*
G01*
X122580Y2270316D01*
X164191Y2229305D01*
X201772Y2193533D01*
X201788Y2193519D01*
X201794Y2193513D01*
X236562Y2162420D01*
X269834Y2135362D01*
X302810Y2111792D01*
X336747Y2091118D01*
X372891Y2072753D01*
X389473Y2065785D01*
X412482Y2056116D01*
X412486Y2056115D01*
X412490Y2056113D01*
X444106Y2045051D01*
X449308Y2043230D01*
X455985Y2037264D01*
X457133Y2032689D01*
X472996Y1663602D01*
X469928Y1655190D01*
X461809Y1651411D01*
X461352Y1651400D01*
X91937Y1649974D01*
X83651Y1653369D01*
X81036Y1657312D01*
X66089Y1694508D01*
X66086Y1694516D01*
X47389Y1734253D01*
X27266Y1770458D01*
X5079Y1804432D01*
X-19810Y1837475D01*
X-48041Y1870891D01*
X-80252Y1905981D01*
X-100490Y1926898D01*
X-117088Y1944054D01*
X-159153Y1986372D01*
X-198867Y2026035D01*
X-202299Y2034305D01*
X-198878Y2042580D01*
X67425Y2308883D01*
X75697Y2312309D01*
X83964Y2308888D01*
G37*
%TD.AperFunction*%
%TD*%
%TA.AperFunction,Conductor*%
%TO.N,+1V1*%
G36*
X273080Y-2303446D02*
G01*
X273403Y-2303769D01*
X529463Y-2570039D01*
X532728Y-2578378D01*
X531679Y-2582996D01*
X515781Y-2617926D01*
X515776Y-2617938D01*
X500481Y-2657400D01*
X500476Y-2657414D01*
X488593Y-2695600D01*
X479713Y-2733740D01*
X479712Y-2733742D01*
X473395Y-2773138D01*
X473391Y-2773166D01*
X469200Y-2815135D01*
X466695Y-2861028D01*
X465446Y-2912104D01*
X465016Y-2969689D01*
X464978Y-3023308D01*
X461545Y-3031579D01*
X453278Y-3035000D01*
X76662Y-3035000D01*
X68389Y-3031573D01*
X64962Y-3023308D01*
X64923Y-2969689D01*
X64923Y-2969650D01*
X64493Y-2912095D01*
X63244Y-2861031D01*
X60740Y-2815152D01*
X56546Y-2773155D01*
X50225Y-2733737D01*
X41343Y-2695593D01*
X29464Y-2657419D01*
X29457Y-2657400D01*
X14162Y-2617938D01*
X14157Y-2617926D01*
X14155Y-2617923D01*
X14151Y-2617911D01*
X-1741Y-2582994D01*
X-2048Y-2574046D01*
X473Y-2570043D01*
X256537Y-2303768D01*
X264741Y-2300181D01*
X273080Y-2303446D01*
G37*
%TD.AperFunction*%
%TD*%
%TA.AperFunction,Conductor*%
%TO.N,+1V1*%
G36*
X461718Y-4011583D02*
G01*
X465144Y-4019679D01*
X465704Y-4056798D01*
X468117Y-4100450D01*
X472532Y-4139670D01*
X472533Y-4139676D01*
X479256Y-4174836D01*
X479258Y-4174844D01*
X488615Y-4206472D01*
X488619Y-4206482D01*
X500923Y-4235025D01*
X516493Y-4260958D01*
X516500Y-4260969D01*
X535645Y-4284747D01*
X535649Y-4284751D01*
X535650Y-4284752D01*
X558705Y-4306864D01*
X579831Y-4323054D01*
X584312Y-4330806D01*
X584042Y-4335263D01*
X491843Y-4692617D01*
X486458Y-4699772D01*
X477591Y-4701023D01*
X476652Y-4700738D01*
X122633Y-4576943D01*
X115955Y-4570978D01*
X114799Y-4566191D01*
X113599Y-4517759D01*
X109796Y-4466294D01*
X104193Y-4417978D01*
X97389Y-4370908D01*
X89985Y-4323183D01*
X82602Y-4273049D01*
X82566Y-4272787D01*
X75797Y-4218330D01*
X75757Y-4217955D01*
X74705Y-4206482D01*
X70188Y-4157221D01*
X70162Y-4156870D01*
X66381Y-4087896D01*
X66366Y-4087478D01*
X65180Y-4020062D01*
X68461Y-4011730D01*
X76672Y-4008158D01*
X76878Y-4008156D01*
X453445Y-4008156D01*
X461718Y-4011583D01*
G37*
%TD.AperFunction*%
%TD*%
%TA.AperFunction,Conductor*%
%TO.N,+1V1*%
G36*
X-526890Y4596560D02*
G01*
X-526567Y4596237D01*
X-270507Y4329967D01*
X-267242Y4321628D01*
X-268291Y4317010D01*
X-284189Y4282080D01*
X-284194Y4282068D01*
X-299489Y4242606D01*
X-299494Y4242592D01*
X-311377Y4204406D01*
X-320257Y4166266D01*
X-320258Y4166264D01*
X-326575Y4126868D01*
X-326579Y4126840D01*
X-330770Y4084871D01*
X-333275Y4038978D01*
X-334524Y3987902D01*
X-334954Y3930317D01*
X-334992Y3876698D01*
X-338425Y3868427D01*
X-346692Y3865006D01*
X-723308Y3865006D01*
X-731581Y3868433D01*
X-735008Y3876698D01*
X-735047Y3930317D01*
X-735047Y3930356D01*
X-735477Y3987911D01*
X-736726Y4038975D01*
X-739230Y4084854D01*
X-743424Y4126851D01*
X-749745Y4166269D01*
X-758627Y4204413D01*
X-770506Y4242587D01*
X-770513Y4242606D01*
X-785808Y4282068D01*
X-785813Y4282080D01*
X-785815Y4282083D01*
X-785819Y4282095D01*
X-801711Y4317012D01*
X-802018Y4325960D01*
X-799497Y4329963D01*
X-543433Y4596238D01*
X-535229Y4599825D01*
X-526890Y4596560D01*
G37*
%TD.AperFunction*%
%TD*%
M02*
