%TF.GenerationSoftware,KiCad,Pcbnew,10.0.5*%
%TF.CreationDate,2026-08-10T16:58:06-08:00*%
%TF.ProjectId,RPI-RP2040-MINIMAL_R3-S1-rounded,5250492d-5250-4323-9034-302d4d494e49,R1*%
%TF.SameCoordinates,Original*%
%TF.FileFunction,Profile,NP*%
%FSLAX46Y46*%
G04 Gerber Fmt 4.6, Leading zero omitted, Abs format (unit mm)*
G04 Created by KiCad (PCBNEW 10.0.5) date 2026-08-10 16:58:06*
%MOMM*%
%LPD*%
G01*
G04 APERTURE LIST*
%TA.AperFunction,Profile*%
%ADD10C,0.250000*%
%TD*%
%TA.AperFunction,Profile*%
%ADD11C,0.050000*%
%TD*%
%ADD12C,0.250000*%
G04 APERTURE END LIST*
D10*
X-49500000Y38248300D02*
G75*
G02*
X-48000000Y39748300I1499900J100D01*
G01*
D11*
X-38000000Y21000000D02*
G75*
G02*
X-39200000Y21000000I-600000J0D01*
G01*
X-39200000Y21000000D02*
G75*
G02*
X-38000000Y21000000I600000J0D01*
G01*
D10*
X-25422568Y39748300D02*
X-48000000Y39748300D01*
X-25422568Y39748300D02*
G75*
G02*
X-24422600Y38748300I-32J-1000000D01*
G01*
X-24422580Y23748300D02*
G75*
G02*
X-25422580Y22748280I-1000020J0D01*
G01*
D12*
X10944339Y-5253117D02*
X10920722Y-5268653D01*
X10897053Y-5284128D01*
X10873334Y-5299540D01*
X10849563Y-5314889D01*
X10825743Y-5330177D01*
X10801871Y-5345401D01*
X10777949Y-5360563D01*
X10753977Y-5375662D01*
X10729955Y-5390697D01*
X10705883Y-5405670D01*
X10681761Y-5420580D01*
X10657589Y-5435426D01*
X10633368Y-5450209D01*
X10609098Y-5464928D01*
X10584778Y-5479583D01*
X10560409Y-5494175D01*
X10535991Y-5508702D01*
X10511524Y-5523166D01*
X10487009Y-5537565D01*
X10474733Y-5544741D01*
X10462445Y-5551900D01*
X10450145Y-5559044D01*
X10437833Y-5566171D01*
X10425508Y-5573282D01*
X10413172Y-5580377D01*
X10400824Y-5587456D01*
X10388464Y-5594519D01*
X10376091Y-5601565D01*
X10363707Y-5608596D01*
X10351311Y-5615610D01*
X10338902Y-5622608D01*
X10326482Y-5629589D01*
X10314050Y-5636555D01*
X10301606Y-5643504D01*
X10289151Y-5650437D01*
X10276683Y-5657353D01*
X10264204Y-5664253D01*
X10251712Y-5671137D01*
X10239210Y-5678005D01*
X10226695Y-5684856D01*
X10214168Y-5691691D01*
X10201630Y-5698509D01*
X10189080Y-5705311D01*
X10176518Y-5712097D01*
X10163945Y-5718866D01*
X10151360Y-5725619D01*
X10138763Y-5732355D01*
X10126155Y-5739075D01*
X10113535Y-5745778D01*
X10100904Y-5752465D01*
X10088261Y-5759136D01*
X10075606Y-5765790D01*
X10062940Y-5772427D01*
X10050263Y-5779048D01*
X10037574Y-5785652D01*
X10024873Y-5792239D01*
X10012161Y-5798810D01*
X9999437Y-5805365D01*
X9986703Y-5811903D01*
X9973956Y-5818424D01*
X9961199Y-5824928D01*
X9948430Y-5831416D01*
X9935649Y-5837887D01*
X9922858Y-5844342D01*
X9910055Y-5850780D01*
X9897240Y-5857201D01*
X9884415Y-5863605D01*
X9871578Y-5869993D01*
X9858730Y-5876364D01*
X9845871Y-5882718D01*
X9833000Y-5889055D01*
X9820119Y-5895376D01*
X9807226Y-5901679D01*
X9794322Y-5907966D01*
X9781407Y-5914236D01*
X9768481Y-5920490D01*
X9755544Y-5926726D01*
X9742596Y-5932945D01*
X9729637Y-5939148D01*
X9716666Y-5945334D01*
X9703685Y-5951503D01*
X9690693Y-5957654D01*
X9677689Y-5963789D01*
X9664675Y-5969907D01*
X9651650Y-5976008D01*
X9638614Y-5982092D01*
X9625567Y-5988159D01*
X9612509Y-5994210D01*
X9599441Y-6000243D01*
X9586361Y-6006259D01*
X9573271Y-6012257D01*
X9560170Y-6018239D01*
X9547058Y-6024204D01*
X9533935Y-6030152D01*
X9520802Y-6036083D01*
X9507658Y-6041996D01*
X9494503Y-6047893D01*
X9481338Y-6053772D01*
X9468162Y-6059634D01*
X9454975Y-6065479D01*
X9441778Y-6071307D01*
X9428570Y-6077117D01*
X9415351Y-6082911D01*
X9402122Y-6088687D01*
X9388882Y-6094446D01*
X9375632Y-6100188D01*
X9362371Y-6105912D01*
X9349100Y-6111620D01*
X9335819Y-6117310D01*
X9322527Y-6122982D01*
X9309224Y-6128638D01*
X9295911Y-6134276D01*
X9282588Y-6139897D01*
X9269254Y-6145500D01*
X9255910Y-6151086D01*
X9242556Y-6156655D01*
X9229191Y-6162206D01*
X9215816Y-6167740D01*
X9202431Y-6173257D01*
X9189035Y-6178756D01*
X9175629Y-6184238D01*
X9162213Y-6189702D01*
X9148787Y-6195149D01*
X9135351Y-6200579D01*
X9121904Y-6205991D01*
X9108448Y-6211385D01*
X9094981Y-6216762D01*
X9081504Y-6222122D01*
X9068017Y-6227464D01*
X9054520Y-6232788D01*
X9041013Y-6238095D01*
X9027496Y-6243384D01*
X9013969Y-6248656D01*
X9000432Y-6253910D01*
X8986885Y-6259147D01*
X8973328Y-6264366D01*
X8959761Y-6269567D01*
X8946184Y-6274751D01*
X8932597Y-6279917D01*
X8919001Y-6285066D01*
X8905394Y-6290197D01*
X8891778Y-6295310D01*
X8878152Y-6300405D01*
X8864516Y-6305483D01*
X8850870Y-6310543D01*
X8837215Y-6315585D01*
X8823550Y-6320610D01*
X8809875Y-6325617D01*
X8796190Y-6330606D01*
X8782496Y-6335578D01*
X8768792Y-6340531D01*
X8755079Y-6345467D01*
X8741356Y-6350385D01*
X8727623Y-6355285D01*
X8713881Y-6360168D01*
X8700129Y-6365032D01*
X8686367Y-6369879D01*
X8672597Y-6374708D01*
X8658816Y-6379519D01*
X8645026Y-6384312D01*
X8631227Y-6389087D01*
X8617418Y-6393844D01*
X8603600Y-6398584D01*
X8589772Y-6403305D01*
X8575935Y-6408009D01*
X8562089Y-6412694D01*
X8548233Y-6417362D01*
X8534368Y-6422012D01*
X8520494Y-6426644D01*
X8506611Y-6431257D01*
X8492717Y-6435853D01*
X8478816Y-6440431D01*
X8464904Y-6444990D01*
X8450984Y-6449532D01*
X8437054Y-6454056D01*
X8423115Y-6458561D01*
X8409167Y-6463049D01*
X8395210Y-6467518D01*
X8381243Y-6471970D01*
X8367268Y-6476403D01*
X8353284Y-6480818D01*
X8339290Y-6485215D01*
X8325287Y-6489594D01*
X8311276Y-6493955D01*
X8297255Y-6498297D01*
X8283226Y-6502622D01*
X8269187Y-6506928D01*
X8255140Y-6511216D01*
X8241084Y-6515486D01*
X8227019Y-6519737D01*
X8212945Y-6523971D01*
X8198862Y-6528186D01*
X8184770Y-6532383D01*
X8170670Y-6536562D01*
X8156560Y-6540722D01*
X8142442Y-6544865D01*
X8128315Y-6548989D01*
X8114180Y-6553094D01*
X8100035Y-6557182D01*
X8085882Y-6561251D01*
X8071720Y-6565301D01*
X8057550Y-6569334D01*
X8043371Y-6573348D01*
X8029183Y-6577343D01*
X8014987Y-6581321D01*
X8000782Y-6585280D01*
X7986569Y-6589220D01*
X7972347Y-6593143D01*
X7958116Y-6597047D01*
X7943878Y-6600932D01*
X7929630Y-6604799D01*
X7915374Y-6608647D01*
X7901110Y-6612478D01*
X7886837Y-6616289D01*
X7872556Y-6620082D01*
X7858266Y-6623857D01*
X7843968Y-6627613D01*
X7829662Y-6631351D01*
X7815347Y-6635070D01*
X7806507Y-6637357D01*
D11*
X-41000000Y22500000D02*
G75*
G02*
X-42200000Y22500000I-600000J0D01*
G01*
X-42200000Y22500000D02*
G75*
G02*
X-41000000Y22500000I600000J0D01*
G01*
D10*
X-49500000Y19248300D02*
G75*
G02*
X-48000000Y20748300I1500000J0D01*
G01*
D11*
X-38000000Y22500000D02*
G75*
G02*
X-39200000Y22500000I-600000J0D01*
G01*
X-39200000Y22500000D02*
G75*
G02*
X-38000000Y22500000I600000J0D01*
G01*
D10*
X10931506Y24748300D02*
X14000000Y24748300D01*
X-45250000Y-4000000D02*
G75*
G02*
X-47750000Y-4000000I-1250000J0D01*
G01*
X-47750000Y-4000000D02*
G75*
G02*
X-45250000Y-4000000I1250000J0D01*
G01*
X-49500000Y38248300D02*
X-49500000Y24248300D01*
X-15636987Y23248300D02*
G75*
G02*
X-18136987Y20748287I-2500013J0D01*
G01*
X10931506Y24748300D02*
G75*
G02*
X8431500Y27248300I-6J2500000D01*
G01*
D12*
X13379671Y-2972281D02*
X13371175Y-2983486D01*
X13362663Y-2994677D01*
X13345593Y-3017022D01*
X13328463Y-3039316D01*
X13311270Y-3061558D01*
X13294017Y-3083748D01*
X13276702Y-3105887D01*
X13259327Y-3127974D01*
X13241891Y-3150009D01*
X13224393Y-3171991D01*
X13206835Y-3193922D01*
X13189217Y-3215801D01*
X13171538Y-3237627D01*
X13153798Y-3259400D01*
X13135998Y-3281121D01*
X13118138Y-3302789D01*
X13100218Y-3324405D01*
X13082237Y-3345968D01*
X13064197Y-3367477D01*
X13046097Y-3388934D01*
X13027937Y-3410337D01*
X13009717Y-3431687D01*
X12991438Y-3452984D01*
X12973099Y-3474227D01*
X12954701Y-3495417D01*
X12936243Y-3516552D01*
X12917727Y-3537634D01*
X12899151Y-3558662D01*
X12880516Y-3579636D01*
X12861823Y-3600556D01*
X12843070Y-3621422D01*
X12824259Y-3642233D01*
X12805389Y-3662990D01*
X12786461Y-3683692D01*
X12767474Y-3704340D01*
X12748429Y-3724933D01*
X12729326Y-3745471D01*
X12710164Y-3765954D01*
X12690945Y-3786382D01*
X12671667Y-3806755D01*
X12652332Y-3827072D01*
X12632939Y-3847334D01*
X12613489Y-3867541D01*
X12593980Y-3887692D01*
X12574415Y-3907788D01*
X12554792Y-3927827D01*
X12535112Y-3947811D01*
X12515375Y-3967739D01*
X12495580Y-3987610D01*
X12475729Y-4007426D01*
X12455821Y-4027185D01*
X12435856Y-4046888D01*
X12415834Y-4066534D01*
X12395756Y-4086124D01*
X12375622Y-4105657D01*
X12355431Y-4125133D01*
X12335184Y-4144552D01*
X12314881Y-4163914D01*
X12294522Y-4183219D01*
X12274107Y-4202467D01*
X12253636Y-4221658D01*
X12233109Y-4240791D01*
X12212527Y-4259867D01*
X12191889Y-4278885D01*
X12171196Y-4297845D01*
X12150447Y-4316748D01*
X12129643Y-4335592D01*
X12108784Y-4354379D01*
X12087870Y-4373107D01*
X12077393Y-4382450D01*
X12066902Y-4391778D01*
X12056397Y-4401091D01*
X12045878Y-4410390D01*
X12035346Y-4419674D01*
X12024800Y-4428943D01*
X12014240Y-4438198D01*
X12003667Y-4447438D01*
X11993080Y-4456664D01*
X11982479Y-4465874D01*
X11971865Y-4475071D01*
X11961237Y-4484252D01*
X11950596Y-4493419D01*
X11939941Y-4502571D01*
X11929273Y-4511708D01*
X11918591Y-4520831D01*
X11907895Y-4529939D01*
X11897186Y-4539032D01*
X11886464Y-4548110D01*
X11875728Y-4557174D01*
X11864979Y-4566222D01*
X11854216Y-4575256D01*
X11843439Y-4584275D01*
X11832650Y-4593279D01*
X11821846Y-4602269D01*
X11811030Y-4611243D01*
X11800200Y-4620203D01*
X11789357Y-4629148D01*
X11778500Y-4638077D01*
X11767630Y-4646992D01*
X11756747Y-4655892D01*
X11745850Y-4664777D01*
X11734940Y-4673647D01*
X11724016Y-4682502D01*
X11713080Y-4691343D01*
X11702130Y-4700168D01*
X11691167Y-4708978D01*
X11680190Y-4717773D01*
X11669201Y-4726553D01*
X11658198Y-4735318D01*
X11647182Y-4744068D01*
X11636153Y-4752803D01*
X11625110Y-4761523D01*
X11614055Y-4770228D01*
X11602986Y-4778918D01*
X11591904Y-4787592D01*
X11580809Y-4796252D01*
X11569701Y-4804896D01*
X11558579Y-4813525D01*
X11547445Y-4822139D01*
X11536298Y-4830738D01*
X11525137Y-4839322D01*
X11513964Y-4847890D01*
X11502777Y-4856444D01*
X11491578Y-4864982D01*
X11480365Y-4873505D01*
X11469139Y-4882012D01*
X11457901Y-4890505D01*
X11446649Y-4898982D01*
X11435385Y-4907443D01*
X11424107Y-4915890D01*
X11412817Y-4924321D01*
X11401514Y-4932737D01*
X11390197Y-4941138D01*
X11378868Y-4949523D01*
X11367526Y-4957893D01*
X11356171Y-4966247D01*
X11344804Y-4974586D01*
X11333423Y-4982910D01*
X11322030Y-4991218D01*
X11310624Y-4999511D01*
X11299205Y-5007789D01*
X11287773Y-5016051D01*
X11276328Y-5024297D01*
X11264871Y-5032528D01*
X11253401Y-5040744D01*
X11241918Y-5048944D01*
X11230423Y-5057129D01*
X11218915Y-5065298D01*
X11207394Y-5073452D01*
X11195860Y-5081590D01*
X11184314Y-5089713D01*
X11172755Y-5097820D01*
X11161184Y-5105911D01*
X11149600Y-5113987D01*
X11138003Y-5122047D01*
X11126394Y-5130092D01*
X11114772Y-5138121D01*
X11103137Y-5146135D01*
X11091490Y-5154132D01*
X11079831Y-5162115D01*
X11068158Y-5170081D01*
X11056474Y-5178032D01*
X11044777Y-5185967D01*
X11033067Y-5193887D01*
X11021345Y-5201790D01*
X11009610Y-5209678D01*
X10997863Y-5217551D01*
X10986104Y-5225407D01*
X10974332Y-5233248D01*
X10962548Y-5241073D01*
X10950751Y-5248883D01*
X10944339Y-5253117D01*
D10*
X-24422580Y23748300D02*
X-24422568Y38748300D01*
X-36000000Y22748300D02*
X-36427552Y22748300D01*
X-48000000Y22748300D02*
X-46390844Y22748300D01*
D12*
X14948245Y44793D02*
X14943713Y30908D01*
X14939164Y17032D01*
X14934596Y3165D01*
X14930010Y-10693D01*
X14925406Y-24542D01*
X14920784Y-38381D01*
X14916144Y-52212D01*
X14911486Y-66033D01*
X14906810Y-79845D01*
X14902117Y-93648D01*
X14897405Y-107442D01*
X14892675Y-121226D01*
X14887927Y-135002D01*
X14883161Y-148767D01*
X14878377Y-162524D01*
X14873576Y-176271D01*
X14868756Y-190009D01*
X14863918Y-203738D01*
X14859063Y-217457D01*
X14854190Y-231167D01*
X14849298Y-244868D01*
X14844389Y-258559D01*
X14839462Y-272241D01*
X14834517Y-285913D01*
X14829555Y-299576D01*
X14824574Y-313229D01*
X14819576Y-326873D01*
X14814560Y-340507D01*
X14809526Y-354132D01*
X14804474Y-367747D01*
X14799405Y-381353D01*
X14794317Y-394948D01*
X14789212Y-408535D01*
X14784090Y-422112D01*
X14778949Y-435679D01*
X14773791Y-449236D01*
X14768615Y-462785D01*
X14763421Y-476323D01*
X14758210Y-489851D01*
X14752981Y-503370D01*
X14747734Y-516879D01*
X14742470Y-530378D01*
X14737188Y-543868D01*
X14731888Y-557347D01*
X14726571Y-570817D01*
X14721236Y-584277D01*
X14715884Y-597727D01*
X14710514Y-611168D01*
X14705126Y-624598D01*
X14699721Y-638019D01*
X14694298Y-651429D01*
X14688857Y-664830D01*
X14683399Y-678221D01*
X14677924Y-691601D01*
X14672431Y-704972D01*
X14666921Y-718333D01*
X14661393Y-731684D01*
X14655847Y-745024D01*
X14650284Y-758355D01*
X14644704Y-771676D01*
X14639106Y-784986D01*
X14633491Y-798286D01*
X14627858Y-811577D01*
X14622208Y-824857D01*
X14616540Y-838127D01*
X14610856Y-851387D01*
X14605153Y-864636D01*
X14599433Y-877875D01*
X14593696Y-891105D01*
X14587942Y-904323D01*
X14582170Y-917532D01*
X14576381Y-930730D01*
X14570575Y-943919D01*
X14564751Y-957096D01*
X14558910Y-970264D01*
X14553052Y-983420D01*
X14547176Y-996567D01*
X14541283Y-1009703D01*
X14535373Y-1022829D01*
X14529446Y-1035944D01*
X14523502Y-1049050D01*
X14517540Y-1062144D01*
X14511561Y-1075228D01*
X14505565Y-1088301D01*
X14499551Y-1101365D01*
X14493521Y-1114417D01*
X14487473Y-1127459D01*
X14481409Y-1140490D01*
X14475327Y-1153511D01*
X14469228Y-1166521D01*
X14463112Y-1179521D01*
X14456978Y-1192510D01*
X14450828Y-1205488D01*
X14444661Y-1218455D01*
X14438476Y-1231413D01*
X14432275Y-1244359D01*
X14426056Y-1257294D01*
X14419821Y-1270219D01*
X14413568Y-1283133D01*
X14407299Y-1296036D01*
X14401012Y-1308929D01*
X14394709Y-1321810D01*
X14388388Y-1334681D01*
X14382051Y-1347541D01*
X14375696Y-1360390D01*
X14369325Y-1373228D01*
X14362937Y-1386055D01*
X14356532Y-1398872D01*
X14350109Y-1411677D01*
X14343671Y-1424472D01*
X14337215Y-1437255D01*
X14330742Y-1450028D01*
X14324253Y-1462789D01*
X14317746Y-1475540D01*
X14311223Y-1488279D01*
X14304683Y-1501008D01*
X14298127Y-1513725D01*
X14291553Y-1526431D01*
X14284963Y-1539126D01*
X14278356Y-1551810D01*
X14271732Y-1564483D01*
X14265092Y-1577145D01*
X14258434Y-1589796D01*
X14251760Y-1602435D01*
X14245070Y-1615063D01*
X14238362Y-1627680D01*
X14231638Y-1640286D01*
X14224898Y-1652880D01*
X14218141Y-1665463D01*
X14211367Y-1678035D01*
X14204576Y-1690596D01*
X14197769Y-1703145D01*
X14190945Y-1715683D01*
X14184105Y-1728209D01*
X14177248Y-1740724D01*
X14170375Y-1753228D01*
X14163485Y-1765720D01*
X14156578Y-1778201D01*
X14149655Y-1790670D01*
X14142716Y-1803128D01*
X14135759Y-1815575D01*
X14128787Y-1828010D01*
X14121798Y-1840433D01*
X14114793Y-1852845D01*
X14107771Y-1865245D01*
X14100732Y-1877634D01*
X14093678Y-1890011D01*
X14086607Y-1902377D01*
X14079519Y-1914731D01*
X14072415Y-1927073D01*
X14065295Y-1939403D01*
X14058158Y-1951722D01*
X14051005Y-1964029D01*
X14043836Y-1976325D01*
X14036651Y-1988609D01*
X14029449Y-2000881D01*
X14022231Y-2013141D01*
X14014996Y-2025390D01*
X14007746Y-2037626D01*
X14000479Y-2049851D01*
X13993196Y-2062064D01*
X13985896Y-2074265D01*
X13978581Y-2086455D01*
X13971249Y-2098632D01*
X13963901Y-2110798D01*
X13956537Y-2122951D01*
X13949157Y-2135093D01*
X13941760Y-2147223D01*
X13934348Y-2159341D01*
X13926919Y-2171446D01*
X13919474Y-2183540D01*
X13912013Y-2195622D01*
X13904537Y-2207692D01*
X13897044Y-2219749D01*
X13889535Y-2231795D01*
X13882010Y-2243829D01*
X13874469Y-2255850D01*
X13866911Y-2267859D01*
X13859338Y-2279856D01*
X13851749Y-2291841D01*
X13844144Y-2303814D01*
X13836524Y-2315775D01*
X13828887Y-2327723D01*
X13821234Y-2339660D01*
X13813565Y-2351584D01*
X13805881Y-2363495D01*
X13798180Y-2375395D01*
X13790464Y-2387282D01*
X13782732Y-2399157D01*
X13774984Y-2411019D01*
X13767220Y-2422870D01*
X13759440Y-2434707D01*
X13751644Y-2446533D01*
X13743833Y-2458346D01*
X13736006Y-2470147D01*
X13728163Y-2481935D01*
X13720305Y-2493711D01*
X13712431Y-2505474D01*
X13704541Y-2517225D01*
X13696635Y-2528963D01*
X13688714Y-2540689D01*
X13680777Y-2552403D01*
X13672824Y-2564103D01*
X13664855Y-2575792D01*
X13656871Y-2587467D01*
X13648872Y-2599130D01*
X13640857Y-2610781D01*
X13632826Y-2622419D01*
X13624780Y-2634044D01*
X13616718Y-2645657D01*
X13608640Y-2657256D01*
X13600547Y-2668844D01*
X13592439Y-2680418D01*
X13584314Y-2691980D01*
X13576175Y-2703529D01*
X13568020Y-2715065D01*
X13559849Y-2726589D01*
X13551664Y-2738099D01*
X13543462Y-2749597D01*
X13535245Y-2761082D01*
X13527013Y-2772555D01*
X13518766Y-2784014D01*
X13510503Y-2795461D01*
X13502224Y-2806894D01*
X13493931Y-2818315D01*
X13485622Y-2829723D01*
X13477297Y-2841118D01*
X13468958Y-2852500D01*
X13460603Y-2863869D01*
X13452233Y-2875225D01*
X13443847Y-2886567D01*
X13435447Y-2897898D01*
X13427031Y-2909214D01*
X13418599Y-2920518D01*
X13410153Y-2931809D01*
X13401692Y-2943087D01*
X13393215Y-2954351D01*
X13384723Y-2965603D01*
X13379671Y-2972281D01*
D10*
X-15636987Y23248300D02*
G75*
G02*
X-14136987Y24748287I1499987J0D01*
G01*
X-49500000Y-5500000D02*
X-49500000Y19248300D01*
D11*
X-39500000Y22500000D02*
G75*
G02*
X-40700000Y22500000I-600000J0D01*
G01*
X-40700000Y22500000D02*
G75*
G02*
X-39500000Y22500000I600000J0D01*
G01*
D10*
X-36427552Y20748300D02*
G75*
G02*
X-36427552Y22748300I-72448J1000000D01*
G01*
X-8568494Y27248300D02*
G75*
G02*
X-11068494Y24748294I-2500006J0D01*
G01*
X14000000Y24748300D02*
G75*
G02*
X15500000Y23248300I0J-1500000D01*
G01*
D11*
X-39500000Y21000000D02*
G75*
G02*
X-40700000Y21000000I-600000J0D01*
G01*
X-40700000Y21000000D02*
G75*
G02*
X-39500000Y21000000I600000J0D01*
G01*
D10*
X-36000000Y20748300D02*
X-18136987Y20748300D01*
D11*
X-42500000Y21000000D02*
G75*
G02*
X-43700000Y21000000I-600000J0D01*
G01*
X-43700000Y21000000D02*
G75*
G02*
X-42500000Y21000000I600000J0D01*
G01*
D10*
X7806507Y-6637357D02*
G75*
G02*
X4951288Y-7000001I-2855107J11057857D01*
G01*
X-14136987Y24748300D02*
X-11068494Y24748300D01*
X-36000000Y20748300D02*
X-36427552Y20748300D01*
X-36000000Y22748300D02*
X-25422580Y22748300D01*
D11*
X-42500000Y22500000D02*
G75*
G02*
X-43700000Y22500000I-600000J0D01*
G01*
X-43700000Y22500000D02*
G75*
G02*
X-42500000Y22500000I600000J0D01*
G01*
D10*
X-20750000Y17316955D02*
G75*
G02*
X-23250000Y17316955I-1250000J0D01*
G01*
X-23250000Y17316955D02*
G75*
G02*
X-20750000Y17316955I1250000J0D01*
G01*
X14250000Y7316955D02*
G75*
G02*
X11750000Y7316955I-1250000J0D01*
G01*
X11750000Y7316955D02*
G75*
G02*
X14250000Y7316955I1250000J0D01*
G01*
X-48000000Y20748300D02*
X-46390844Y20748300D01*
D11*
X-43900000Y21000000D02*
G75*
G02*
X-45100000Y21000000I-600000J0D01*
G01*
X-45100000Y21000000D02*
G75*
G02*
X-43900000Y21000000I600000J0D01*
G01*
D10*
X-48000000Y-7000000D02*
G75*
G02*
X-49500000Y-5500000I0J1500000D01*
G01*
X15500000Y23248300D02*
X15500000Y3595388D01*
X-8568494Y29451196D02*
X8431506Y29451196D01*
X4951288Y-7000000D02*
X-48000000Y-7000000D01*
X8431506Y29451196D02*
X8431506Y27248300D01*
X-8568494Y27248300D02*
X-8568494Y29451196D01*
D12*
X15500000Y3595388D02*
X15499960Y3564251D01*
X15499840Y3533126D01*
X15499641Y3502013D01*
X15499361Y3470914D01*
X15499001Y3439828D01*
X15498562Y3408755D01*
X15498043Y3377697D01*
X15497444Y3346652D01*
X15496765Y3315621D01*
X15496007Y3284605D01*
X15495169Y3253604D01*
X15494252Y3222618D01*
X15493255Y3191647D01*
X15492178Y3160691D01*
X15491610Y3145219D01*
X15491022Y3129752D01*
X15490414Y3114288D01*
X15489787Y3098828D01*
X15489139Y3083372D01*
X15488472Y3067921D01*
X15487785Y3052473D01*
X15487078Y3037030D01*
X15486351Y3021591D01*
X15485604Y3006157D01*
X15484838Y2990726D01*
X15484052Y2975300D01*
X15483246Y2959878D01*
X15482420Y2944461D01*
X15481574Y2929047D01*
X15480709Y2913639D01*
X15479823Y2898234D01*
X15478919Y2882835D01*
X15477994Y2867439D01*
X15477049Y2852049D01*
X15476085Y2836663D01*
X15475101Y2821282D01*
X15474097Y2805904D01*
X15473074Y2790533D01*
X15472031Y2775165D01*
X15470968Y2759803D01*
X15469885Y2744445D01*
X15468783Y2729092D01*
X15467661Y2713744D01*
X15466519Y2698401D01*
X15465358Y2683062D01*
X15464177Y2667729D01*
X15462976Y2652401D01*
X15461756Y2637078D01*
X15460515Y2621759D01*
X15459256Y2606446D01*
X15457976Y2591138D01*
X15456677Y2575835D01*
X15455359Y2560537D01*
X15454021Y2545245D01*
X15452663Y2529957D01*
X15451285Y2514676D01*
X15449888Y2499399D01*
X15448472Y2484128D01*
X15447035Y2468862D01*
X15445580Y2453601D01*
X15444104Y2438346D01*
X15442609Y2423097D01*
X15441095Y2407852D01*
X15439561Y2392614D01*
X15438007Y2377381D01*
X15436434Y2362154D01*
X15434841Y2346932D01*
X15433229Y2331716D01*
X15431598Y2316505D01*
X15429947Y2301301D01*
X15428276Y2286102D01*
X15426586Y2270909D01*
X15424876Y2255722D01*
X15423147Y2240541D01*
X15421399Y2225365D01*
X15419631Y2210196D01*
X15417844Y2195032D01*
X15416037Y2179875D01*
X15414211Y2164723D01*
X15412365Y2149578D01*
X15410500Y2134438D01*
X15408616Y2119305D01*
X15406712Y2104178D01*
X15404789Y2089057D01*
X15402846Y2073943D01*
X15400884Y2058835D01*
X15398903Y2043732D01*
X15396902Y2028637D01*
X15394883Y2013547D01*
X15392843Y1998465D01*
X15390785Y1983388D01*
X15388707Y1968318D01*
X15386610Y1953254D01*
X15384494Y1938198D01*
X15382358Y1923147D01*
X15380203Y1908103D01*
X15378029Y1893066D01*
X15375835Y1878036D01*
X15373623Y1863012D01*
X15371391Y1847994D01*
X15369140Y1832984D01*
X15366869Y1817980D01*
X15364580Y1802984D01*
X15362271Y1787994D01*
X15359944Y1773011D01*
X15357597Y1758035D01*
X15355230Y1743065D01*
X15352845Y1728103D01*
X15350441Y1713148D01*
X15348017Y1698200D01*
X15345574Y1683259D01*
X15343113Y1668325D01*
X15340632Y1653398D01*
X15338132Y1638479D01*
X15335613Y1623566D01*
X15333075Y1608661D01*
X15330518Y1593763D01*
X15327942Y1578873D01*
X15325347Y1563990D01*
X15322733Y1549114D01*
X15320099Y1534246D01*
X15317447Y1519385D01*
X15314776Y1504531D01*
X15312086Y1489685D01*
X15309377Y1474847D01*
X15306649Y1460016D01*
X15303902Y1445193D01*
X15301136Y1430377D01*
X15298351Y1415569D01*
X15295548Y1400769D01*
X15292725Y1385977D01*
X15289884Y1371192D01*
X15287024Y1356415D01*
X15284144Y1341646D01*
X15281246Y1326885D01*
X15278330Y1312132D01*
X15275394Y1297386D01*
X15272440Y1282649D01*
X15269466Y1267919D01*
X15266474Y1253198D01*
X15263464Y1238485D01*
X15260434Y1223779D01*
X15257386Y1209082D01*
X15254319Y1194393D01*
X15251233Y1179713D01*
X15248129Y1165040D01*
X15245006Y1150376D01*
X15241864Y1135720D01*
X15238703Y1121072D01*
X15235524Y1106433D01*
X15232326Y1091802D01*
X15229110Y1077179D01*
X15225875Y1062565D01*
X15222621Y1047959D01*
X15219349Y1033363D01*
X15216058Y1018774D01*
X15212749Y1004194D01*
X15209421Y989622D01*
X15206074Y975060D01*
X15202709Y960506D01*
X15199326Y945960D01*
X15195924Y931424D01*
X15192503Y916896D01*
X15189064Y902377D01*
X15185607Y887867D01*
X15182131Y873365D01*
X15178637Y858873D01*
X15175124Y844389D01*
X15171593Y829914D01*
X15168043Y815449D01*
X15164476Y800992D01*
X15160889Y786544D01*
X15157285Y772106D01*
X15153662Y757676D01*
X15150020Y743256D01*
X15146361Y728845D01*
X15142683Y714444D01*
X15138987Y700051D01*
X15135272Y685668D01*
X15131540Y671293D01*
X15127789Y656929D01*
X15124020Y642573D01*
X15120232Y628228D01*
X15116427Y613891D01*
X15112603Y599564D01*
X15108761Y585246D01*
X15104901Y570938D01*
X15101023Y556639D01*
X15097126Y542351D01*
X15093212Y528071D01*
X15089280Y513802D01*
X15085329Y499541D01*
X15081360Y485292D01*
X15077373Y471051D01*
X15073369Y456820D01*
X15069346Y442599D01*
X15065305Y428388D01*
X15061246Y414186D01*
X15057170Y399995D01*
X15053075Y385813D01*
X15048962Y371642D01*
X15044832Y357480D01*
X15040683Y343329D01*
X15036517Y329187D01*
X15032333Y315056D01*
X15028131Y300934D01*
X15023911Y286823D01*
X15019673Y272722D01*
X15015417Y258631D01*
X15011144Y244550D01*
X15006853Y230480D01*
X15002543Y216420D01*
X14998217Y202371D01*
X14993872Y188331D01*
X14989510Y174302D01*
X14985130Y160283D01*
X14980733Y146275D01*
X14976317Y132277D01*
X14971884Y118290D01*
X14967434Y104313D01*
X14962965Y90347D01*
X14958479Y76391D01*
X14953976Y62446D01*
X14949455Y48511D01*
X14948245Y44793D01*
D11*
X-44000000Y22500000D02*
G75*
G02*
X-45200000Y22500000I-600000J0D01*
G01*
X-45200000Y22500000D02*
G75*
G02*
X-44000000Y22500000I600000J0D01*
G01*
D10*
X-46390844Y22748300D02*
G75*
G02*
X-46390844Y20748300I72444J-1000000D01*
G01*
X-48000000Y22748300D02*
G75*
G02*
X-49500000Y24248300I0J1500000D01*
G01*
D11*
X-41000000Y21000000D02*
G75*
G02*
X-42200000Y21000000I-600000J0D01*
G01*
X-42200000Y21000000D02*
G75*
G02*
X-41000000Y21000000I600000J0D01*
G01*
M02*
