%TF.GenerationSoftware,KiCad,Pcbnew,10.0.5*%
%TF.CreationDate,2026-08-10T16:58:06-08:00*%
%TF.ProjectId,RPI-RP2040-MINIMAL_R3-S1-rounded,5250492d-5250-4323-9034-302d4d494e49,R1*%
%TF.SameCoordinates,Original*%
%TF.FileFunction,Legend,Top*%
%TF.FilePolarity,Positive*%
%FSLAX46Y46*%
G04 Gerber Fmt 4.6, Leading zero omitted, Abs format (unit mm)*
G04 Created by KiCad (PCBNEW 10.0.5) date 2026-08-10 16:58:06*
%MOMM*%
%LPD*%
G01*
G04 APERTURE LIST*
G04 Aperture macros list*
%AMRoundRect*
0 Rectangle with rounded corners*
0 $1 Rounding radius*
0 $2 $3 $4 $5 $6 $7 $8 $9 X,Y pos of 4 corners*
0 Add a 4 corners polygon primitive as box body*
4,1,4,$2,$3,$4,$5,$6,$7,$8,$9,$2,$3,0*
0 Add four circle primitives for the rounded corners*
1,1,$1+$1,$2,$3*
1,1,$1+$1,$4,$5*
1,1,$1+$1,$6,$7*
1,1,$1+$1,$8,$9*
0 Add four rect primitives between the rounded corners*
20,1,$1+$1,$2,$3,$4,$5,0*
20,1,$1+$1,$4,$5,$6,$7,0*
20,1,$1+$1,$6,$7,$8,$9,0*
20,1,$1+$1,$8,$9,$2,$3,0*%
G04 Aperture macros list end*
%ADD10C,0.200000*%
%ADD11C,0.150000*%
%ADD12C,0.125000*%
%ADD13C,0.120000*%
%ADD14C,0.000000*%
%ADD15R,0.550000X0.550000*%
%ADD16R,1.000000X1.400000*%
%ADD17RoundRect,0.100000X-0.295000X0.100000X-0.295000X-0.100000X0.295000X-0.100000X0.295000X0.100000X0*%
%ADD18RoundRect,0.162500X-0.637500X0.162500X-0.637500X-0.162500X0.637500X-0.162500X0.637500X0.162500X0*%
%ADD19R,1.200000X1.400000*%
%ADD20C,2.100000*%
%ADD21C,1.750000*%
%ADD22R,1.000000X0.900000*%
%ADD23R,1.700000X0.650000*%
%ADD24R,1.500000X2.000000*%
%ADD25R,3.800000X2.000000*%
%ADD26R,0.800000X0.230000*%
%ADD27R,0.230000X0.800000*%
%ADD28R,1.700000X1.700000*%
%ADD29C,1.700000*%
G04 APERTURE END LIST*
D10*
X-29132781Y24594164D02*
X-29132781Y24117974D01*
X-29132781Y24117974D02*
X-28656591Y24070355D01*
X-28656591Y24070355D02*
X-28704210Y24117974D01*
X-28704210Y24117974D02*
X-28751829Y24213212D01*
X-28751829Y24213212D02*
X-28751829Y24451307D01*
X-28751829Y24451307D02*
X-28704210Y24546545D01*
X-28704210Y24546545D02*
X-28656591Y24594164D01*
X-28656591Y24594164D02*
X-28561353Y24641783D01*
X-28561353Y24641783D02*
X-28323258Y24641783D01*
X-28323258Y24641783D02*
X-28228020Y24594164D01*
X-28228020Y24594164D02*
X-28180400Y24546545D01*
X-28180400Y24546545D02*
X-28132781Y24451307D01*
X-28132781Y24451307D02*
X-28132781Y24213212D01*
X-28132781Y24213212D02*
X-28180400Y24117974D01*
X-28180400Y24117974D02*
X-28228020Y24070355D01*
X-29132781Y24927498D02*
X-28132781Y25260831D01*
X-28132781Y25260831D02*
X-29132781Y25594164D01*
X6845863Y29132781D02*
X6369673Y29132781D01*
X6369673Y29132781D02*
X6322054Y28656591D01*
X6322054Y28656591D02*
X6369673Y28704210D01*
X6369673Y28704210D02*
X6464911Y28751829D01*
X6464911Y28751829D02*
X6703006Y28751829D01*
X6703006Y28751829D02*
X6798244Y28704210D01*
X6798244Y28704210D02*
X6845863Y28656591D01*
X6845863Y28656591D02*
X6893482Y28561353D01*
X6893482Y28561353D02*
X6893482Y28323258D01*
X6893482Y28323258D02*
X6845863Y28228020D01*
X6845863Y28228020D02*
X6798244Y28180400D01*
X6798244Y28180400D02*
X6703006Y28132781D01*
X6703006Y28132781D02*
X6464911Y28132781D01*
X6464911Y28132781D02*
X6369673Y28180400D01*
X6369673Y28180400D02*
X6322054Y28228020D01*
X7179197Y29132781D02*
X7512530Y28132781D01*
X7512530Y28132781D02*
X7845863Y29132781D01*
D11*
X-6295209Y17473572D02*
X-5485686Y17473572D01*
X-5485686Y17473572D02*
X-5390448Y17521191D01*
X-5390448Y17521191D02*
X-5342828Y17568810D01*
X-5342828Y17568810D02*
X-5295209Y17664048D01*
X-5295209Y17664048D02*
X-5295209Y17854524D01*
X-5295209Y17854524D02*
X-5342828Y17949762D01*
X-5342828Y17949762D02*
X-5390448Y17997381D01*
X-5390448Y17997381D02*
X-5485686Y18045000D01*
X-5485686Y18045000D02*
X-6295209Y18045000D01*
X-5342828Y18473572D02*
X-5295209Y18616429D01*
X-5295209Y18616429D02*
X-5295209Y18854524D01*
X-5295209Y18854524D02*
X-5342828Y18949762D01*
X-5342828Y18949762D02*
X-5390448Y18997381D01*
X-5390448Y18997381D02*
X-5485686Y19045000D01*
X-5485686Y19045000D02*
X-5580924Y19045000D01*
X-5580924Y19045000D02*
X-5676162Y18997381D01*
X-5676162Y18997381D02*
X-5723781Y18949762D01*
X-5723781Y18949762D02*
X-5771400Y18854524D01*
X-5771400Y18854524D02*
X-5819019Y18664048D01*
X-5819019Y18664048D02*
X-5866638Y18568810D01*
X-5866638Y18568810D02*
X-5914257Y18521191D01*
X-5914257Y18521191D02*
X-6009495Y18473572D01*
X-6009495Y18473572D02*
X-6104733Y18473572D01*
X-6104733Y18473572D02*
X-6199971Y18521191D01*
X-6199971Y18521191D02*
X-6247590Y18568810D01*
X-6247590Y18568810D02*
X-6295209Y18664048D01*
X-6295209Y18664048D02*
X-6295209Y18902143D01*
X-6295209Y18902143D02*
X-6247590Y19045000D01*
X-5819019Y19806905D02*
X-5771400Y19949762D01*
X-5771400Y19949762D02*
X-5723781Y19997381D01*
X-5723781Y19997381D02*
X-5628543Y20045000D01*
X-5628543Y20045000D02*
X-5485686Y20045000D01*
X-5485686Y20045000D02*
X-5390448Y19997381D01*
X-5390448Y19997381D02*
X-5342828Y19949762D01*
X-5342828Y19949762D02*
X-5295209Y19854524D01*
X-5295209Y19854524D02*
X-5295209Y19473572D01*
X-5295209Y19473572D02*
X-6295209Y19473572D01*
X-6295209Y19473572D02*
X-6295209Y19806905D01*
X-6295209Y19806905D02*
X-6247590Y19902143D01*
X-6247590Y19902143D02*
X-6199971Y19949762D01*
X-6199971Y19949762D02*
X-6104733Y19997381D01*
X-6104733Y19997381D02*
X-6009495Y19997381D01*
X-6009495Y19997381D02*
X-5914257Y19949762D01*
X-5914257Y19949762D02*
X-5866638Y19902143D01*
X-5866638Y19902143D02*
X-5819019Y19806905D01*
X-5819019Y19806905D02*
X-5819019Y19473572D01*
X-5199971Y20235476D02*
X-5199971Y20997381D01*
X-5819019Y21568810D02*
X-5771400Y21711667D01*
X-5771400Y21711667D02*
X-5723781Y21759286D01*
X-5723781Y21759286D02*
X-5628543Y21806905D01*
X-5628543Y21806905D02*
X-5485686Y21806905D01*
X-5485686Y21806905D02*
X-5390448Y21759286D01*
X-5390448Y21759286D02*
X-5342828Y21711667D01*
X-5342828Y21711667D02*
X-5295209Y21616429D01*
X-5295209Y21616429D02*
X-5295209Y21235477D01*
X-5295209Y21235477D02*
X-6295209Y21235477D01*
X-6295209Y21235477D02*
X-6295209Y21568810D01*
X-6295209Y21568810D02*
X-6247590Y21664048D01*
X-6247590Y21664048D02*
X-6199971Y21711667D01*
X-6199971Y21711667D02*
X-6104733Y21759286D01*
X-6104733Y21759286D02*
X-6009495Y21759286D01*
X-6009495Y21759286D02*
X-5914257Y21711667D01*
X-5914257Y21711667D02*
X-5866638Y21664048D01*
X-5866638Y21664048D02*
X-5819019Y21568810D01*
X-5819019Y21568810D02*
X-5819019Y21235477D01*
X-6295209Y22425953D02*
X-6295209Y22616429D01*
X-6295209Y22616429D02*
X-6247590Y22711667D01*
X-6247590Y22711667D02*
X-6152352Y22806905D01*
X-6152352Y22806905D02*
X-5961876Y22854524D01*
X-5961876Y22854524D02*
X-5628543Y22854524D01*
X-5628543Y22854524D02*
X-5438067Y22806905D01*
X-5438067Y22806905D02*
X-5342828Y22711667D01*
X-5342828Y22711667D02*
X-5295209Y22616429D01*
X-5295209Y22616429D02*
X-5295209Y22425953D01*
X-5295209Y22425953D02*
X-5342828Y22330715D01*
X-5342828Y22330715D02*
X-5438067Y22235477D01*
X-5438067Y22235477D02*
X-5628543Y22187858D01*
X-5628543Y22187858D02*
X-5961876Y22187858D01*
X-5961876Y22187858D02*
X-6152352Y22235477D01*
X-6152352Y22235477D02*
X-6247590Y22330715D01*
X-6247590Y22330715D02*
X-6295209Y22425953D01*
X-6295209Y23473572D02*
X-6295209Y23664048D01*
X-6295209Y23664048D02*
X-6247590Y23759286D01*
X-6247590Y23759286D02*
X-6152352Y23854524D01*
X-6152352Y23854524D02*
X-5961876Y23902143D01*
X-5961876Y23902143D02*
X-5628543Y23902143D01*
X-5628543Y23902143D02*
X-5438067Y23854524D01*
X-5438067Y23854524D02*
X-5342828Y23759286D01*
X-5342828Y23759286D02*
X-5295209Y23664048D01*
X-5295209Y23664048D02*
X-5295209Y23473572D01*
X-5295209Y23473572D02*
X-5342828Y23378334D01*
X-5342828Y23378334D02*
X-5438067Y23283096D01*
X-5438067Y23283096D02*
X-5628543Y23235477D01*
X-5628543Y23235477D02*
X-5961876Y23235477D01*
X-5961876Y23235477D02*
X-6152352Y23283096D01*
X-6152352Y23283096D02*
X-6247590Y23378334D01*
X-6247590Y23378334D02*
X-6295209Y23473572D01*
X-6295209Y24187858D02*
X-6295209Y24759286D01*
X-5295209Y24473572D02*
X-6295209Y24473572D01*
D10*
X-29085162Y37141783D02*
X-29132781Y37046545D01*
X-29132781Y37046545D02*
X-29132781Y36903688D01*
X-29132781Y36903688D02*
X-29085162Y36760831D01*
X-29085162Y36760831D02*
X-28989924Y36665593D01*
X-28989924Y36665593D02*
X-28894686Y36617974D01*
X-28894686Y36617974D02*
X-28704210Y36570355D01*
X-28704210Y36570355D02*
X-28561353Y36570355D01*
X-28561353Y36570355D02*
X-28370877Y36617974D01*
X-28370877Y36617974D02*
X-28275639Y36665593D01*
X-28275639Y36665593D02*
X-28180400Y36760831D01*
X-28180400Y36760831D02*
X-28132781Y36903688D01*
X-28132781Y36903688D02*
X-28132781Y36998926D01*
X-28132781Y36998926D02*
X-28180400Y37141783D01*
X-28180400Y37141783D02*
X-28228020Y37189402D01*
X-28228020Y37189402D02*
X-28561353Y37189402D01*
X-28561353Y37189402D02*
X-28561353Y36998926D01*
X-28132781Y37617974D02*
X-29132781Y37617974D01*
X-29132781Y37617974D02*
X-28132781Y38189402D01*
X-28132781Y38189402D02*
X-29132781Y38189402D01*
X-28132781Y38665593D02*
X-29132781Y38665593D01*
X-29132781Y38665593D02*
X-29132781Y38903688D01*
X-29132781Y38903688D02*
X-29085162Y39046545D01*
X-29085162Y39046545D02*
X-28989924Y39141783D01*
X-28989924Y39141783D02*
X-28894686Y39189402D01*
X-28894686Y39189402D02*
X-28704210Y39237021D01*
X-28704210Y39237021D02*
X-28561353Y39237021D01*
X-28561353Y39237021D02*
X-28370877Y39189402D01*
X-28370877Y39189402D02*
X-28275639Y39141783D01*
X-28275639Y39141783D02*
X-28180400Y39046545D01*
X-28180400Y39046545D02*
X-28132781Y38903688D01*
X-28132781Y38903688D02*
X-28132781Y38665593D01*
X-7606518Y28997073D02*
X-7701756Y29044692D01*
X-7701756Y29044692D02*
X-7844613Y29044692D01*
X-7844613Y29044692D02*
X-7987470Y28997073D01*
X-7987470Y28997073D02*
X-8082708Y28901835D01*
X-8082708Y28901835D02*
X-8130327Y28806597D01*
X-8130327Y28806597D02*
X-8177946Y28616121D01*
X-8177946Y28616121D02*
X-8177946Y28473264D01*
X-8177946Y28473264D02*
X-8130327Y28282788D01*
X-8130327Y28282788D02*
X-8082708Y28187550D01*
X-8082708Y28187550D02*
X-7987470Y28092311D01*
X-7987470Y28092311D02*
X-7844613Y28044692D01*
X-7844613Y28044692D02*
X-7749375Y28044692D01*
X-7749375Y28044692D02*
X-7606518Y28092311D01*
X-7606518Y28092311D02*
X-7558899Y28139931D01*
X-7558899Y28139931D02*
X-7558899Y28473264D01*
X-7558899Y28473264D02*
X-7749375Y28473264D01*
X-7130327Y28044692D02*
X-7130327Y29044692D01*
X-7130327Y29044692D02*
X-6558899Y28044692D01*
X-6558899Y28044692D02*
X-6558899Y29044692D01*
X-6082708Y28044692D02*
X-6082708Y29044692D01*
X-6082708Y29044692D02*
X-5844613Y29044692D01*
X-5844613Y29044692D02*
X-5701756Y28997073D01*
X-5701756Y28997073D02*
X-5606518Y28901835D01*
X-5606518Y28901835D02*
X-5558899Y28806597D01*
X-5558899Y28806597D02*
X-5511280Y28616121D01*
X-5511280Y28616121D02*
X-5511280Y28473264D01*
X-5511280Y28473264D02*
X-5558899Y28282788D01*
X-5558899Y28282788D02*
X-5606518Y28187550D01*
X-5606518Y28187550D02*
X-5701756Y28092311D01*
X-5701756Y28092311D02*
X-5844613Y28044692D01*
X-5844613Y28044692D02*
X-6082708Y28044692D01*
D12*
X-4233334Y15537596D02*
X-4257143Y15499500D01*
X-4257143Y15499500D02*
X-4328572Y15461405D01*
X-4328572Y15461405D02*
X-4376191Y15461405D01*
X-4376191Y15461405D02*
X-4447619Y15499500D01*
X-4447619Y15499500D02*
X-4495238Y15575691D01*
X-4495238Y15575691D02*
X-4519048Y15651881D01*
X-4519048Y15651881D02*
X-4542857Y15804262D01*
X-4542857Y15804262D02*
X-4542857Y15918548D01*
X-4542857Y15918548D02*
X-4519048Y16070929D01*
X-4519048Y16070929D02*
X-4495238Y16147120D01*
X-4495238Y16147120D02*
X-4447619Y16223310D01*
X-4447619Y16223310D02*
X-4376191Y16261405D01*
X-4376191Y16261405D02*
X-4328572Y16261405D01*
X-4328572Y16261405D02*
X-4257143Y16223310D01*
X-4257143Y16223310D02*
X-4233334Y16185215D01*
X-3780953Y16261405D02*
X-4019048Y16261405D01*
X-4019048Y16261405D02*
X-4042857Y15880453D01*
X-4042857Y15880453D02*
X-4019048Y15918548D01*
X-4019048Y15918548D02*
X-3971429Y15956643D01*
X-3971429Y15956643D02*
X-3852381Y15956643D01*
X-3852381Y15956643D02*
X-3804762Y15918548D01*
X-3804762Y15918548D02*
X-3780953Y15880453D01*
X-3780953Y15880453D02*
X-3757143Y15804262D01*
X-3757143Y15804262D02*
X-3757143Y15613786D01*
X-3757143Y15613786D02*
X-3780953Y15537596D01*
X-3780953Y15537596D02*
X-3804762Y15499500D01*
X-3804762Y15499500D02*
X-3852381Y15461405D01*
X-3852381Y15461405D02*
X-3971429Y15461405D01*
X-3971429Y15461405D02*
X-4019048Y15499500D01*
X-4019048Y15499500D02*
X-4042857Y15537596D01*
X7519166Y24217596D02*
X7495357Y24179500D01*
X7495357Y24179500D02*
X7423928Y24141405D01*
X7423928Y24141405D02*
X7376309Y24141405D01*
X7376309Y24141405D02*
X7304881Y24179500D01*
X7304881Y24179500D02*
X7257262Y24255691D01*
X7257262Y24255691D02*
X7233452Y24331881D01*
X7233452Y24331881D02*
X7209643Y24484262D01*
X7209643Y24484262D02*
X7209643Y24598548D01*
X7209643Y24598548D02*
X7233452Y24750929D01*
X7233452Y24750929D02*
X7257262Y24827120D01*
X7257262Y24827120D02*
X7304881Y24903310D01*
X7304881Y24903310D02*
X7376309Y24941405D01*
X7376309Y24941405D02*
X7423928Y24941405D01*
X7423928Y24941405D02*
X7495357Y24903310D01*
X7495357Y24903310D02*
X7519166Y24865215D01*
X7995357Y24141405D02*
X7709643Y24141405D01*
X7852500Y24141405D02*
X7852500Y24941405D01*
X7852500Y24941405D02*
X7804881Y24827120D01*
X7804881Y24827120D02*
X7757262Y24750929D01*
X7757262Y24750929D02*
X7709643Y24712834D01*
X-11471405Y17256667D02*
X-11852358Y17090001D01*
X-11471405Y16970953D02*
X-12271405Y16970953D01*
X-12271405Y16970953D02*
X-12271405Y17161429D01*
X-12271405Y17161429D02*
X-12233310Y17209048D01*
X-12233310Y17209048D02*
X-12195215Y17232858D01*
X-12195215Y17232858D02*
X-12119024Y17256667D01*
X-12119024Y17256667D02*
X-12004739Y17256667D01*
X-12004739Y17256667D02*
X-11928548Y17232858D01*
X-11928548Y17232858D02*
X-11890453Y17209048D01*
X-11890453Y17209048D02*
X-11852358Y17161429D01*
X-11852358Y17161429D02*
X-11852358Y16970953D01*
X-11471405Y17732858D02*
X-11471405Y17447144D01*
X-11471405Y17590001D02*
X-12271405Y17590001D01*
X-12271405Y17590001D02*
X-12157120Y17542382D01*
X-12157120Y17542382D02*
X-12080929Y17494763D01*
X-12080929Y17494763D02*
X-12042834Y17447144D01*
X1028595Y7471667D02*
X647642Y7305001D01*
X1028595Y7185953D02*
X228595Y7185953D01*
X228595Y7185953D02*
X228595Y7376429D01*
X228595Y7376429D02*
X266690Y7424048D01*
X266690Y7424048D02*
X304785Y7447858D01*
X304785Y7447858D02*
X380976Y7471667D01*
X380976Y7471667D02*
X495261Y7471667D01*
X495261Y7471667D02*
X571452Y7447858D01*
X571452Y7447858D02*
X609547Y7424048D01*
X609547Y7424048D02*
X647642Y7376429D01*
X647642Y7376429D02*
X647642Y7185953D01*
X228595Y7638334D02*
X228595Y7947858D01*
X228595Y7947858D02*
X533357Y7781191D01*
X533357Y7781191D02*
X533357Y7852620D01*
X533357Y7852620D02*
X571452Y7900239D01*
X571452Y7900239D02*
X609547Y7924048D01*
X609547Y7924048D02*
X685738Y7947858D01*
X685738Y7947858D02*
X876214Y7947858D01*
X876214Y7947858D02*
X952404Y7924048D01*
X952404Y7924048D02*
X990500Y7900239D01*
X990500Y7900239D02*
X1028595Y7852620D01*
X1028595Y7852620D02*
X1028595Y7709763D01*
X1028595Y7709763D02*
X990500Y7662144D01*
X990500Y7662144D02*
X952404Y7638334D01*
X-1047596Y9171667D02*
X-1009500Y9147858D01*
X-1009500Y9147858D02*
X-971405Y9076429D01*
X-971405Y9076429D02*
X-971405Y9028810D01*
X-971405Y9028810D02*
X-1009500Y8957382D01*
X-1009500Y8957382D02*
X-1085691Y8909763D01*
X-1085691Y8909763D02*
X-1161881Y8885953D01*
X-1161881Y8885953D02*
X-1314262Y8862144D01*
X-1314262Y8862144D02*
X-1428548Y8862144D01*
X-1428548Y8862144D02*
X-1580929Y8885953D01*
X-1580929Y8885953D02*
X-1657120Y8909763D01*
X-1657120Y8909763D02*
X-1733310Y8957382D01*
X-1733310Y8957382D02*
X-1771405Y9028810D01*
X-1771405Y9028810D02*
X-1771405Y9076429D01*
X-1771405Y9076429D02*
X-1733310Y9147858D01*
X-1733310Y9147858D02*
X-1695215Y9171667D01*
X-1771405Y9600239D02*
X-1771405Y9505001D01*
X-1771405Y9505001D02*
X-1733310Y9457382D01*
X-1733310Y9457382D02*
X-1695215Y9433572D01*
X-1695215Y9433572D02*
X-1580929Y9385953D01*
X-1580929Y9385953D02*
X-1428548Y9362144D01*
X-1428548Y9362144D02*
X-1123786Y9362144D01*
X-1123786Y9362144D02*
X-1047596Y9385953D01*
X-1047596Y9385953D02*
X-1009500Y9409763D01*
X-1009500Y9409763D02*
X-971405Y9457382D01*
X-971405Y9457382D02*
X-971405Y9552620D01*
X-971405Y9552620D02*
X-1009500Y9600239D01*
X-1009500Y9600239D02*
X-1047596Y9624048D01*
X-1047596Y9624048D02*
X-1123786Y9647858D01*
X-1123786Y9647858D02*
X-1314262Y9647858D01*
X-1314262Y9647858D02*
X-1390453Y9624048D01*
X-1390453Y9624048D02*
X-1428548Y9600239D01*
X-1428548Y9600239D02*
X-1466643Y9552620D01*
X-1466643Y9552620D02*
X-1466643Y9457382D01*
X-1466643Y9457382D02*
X-1428548Y9409763D01*
X-1428548Y9409763D02*
X-1390453Y9385953D01*
X-1390453Y9385953D02*
X-1314262Y9362144D01*
D11*
X-43779451Y32087085D02*
X-42779451Y32087085D01*
X-42779451Y32087085D02*
X-42779451Y31706133D01*
X-42779451Y31706133D02*
X-42827070Y31610895D01*
X-42827070Y31610895D02*
X-42874689Y31563276D01*
X-42874689Y31563276D02*
X-42969927Y31515657D01*
X-42969927Y31515657D02*
X-43112784Y31515657D01*
X-43112784Y31515657D02*
X-43208022Y31563276D01*
X-43208022Y31563276D02*
X-43255641Y31610895D01*
X-43255641Y31610895D02*
X-43303260Y31706133D01*
X-43303260Y31706133D02*
X-43303260Y32087085D01*
X-43779451Y30563276D02*
X-43779451Y31134704D01*
X-43779451Y30848990D02*
X-42779451Y30848990D01*
X-42779451Y30848990D02*
X-42922308Y30944228D01*
X-42922308Y30944228D02*
X-43017546Y31039466D01*
X-43017546Y31039466D02*
X-43065165Y31134704D01*
D12*
X-7141429Y-2832404D02*
X-7165238Y-2870500D01*
X-7165238Y-2870500D02*
X-7236667Y-2908595D01*
X-7236667Y-2908595D02*
X-7284286Y-2908595D01*
X-7284286Y-2908595D02*
X-7355714Y-2870500D01*
X-7355714Y-2870500D02*
X-7403333Y-2794309D01*
X-7403333Y-2794309D02*
X-7427143Y-2718119D01*
X-7427143Y-2718119D02*
X-7450952Y-2565738D01*
X-7450952Y-2565738D02*
X-7450952Y-2451452D01*
X-7450952Y-2451452D02*
X-7427143Y-2299071D01*
X-7427143Y-2299071D02*
X-7403333Y-2222880D01*
X-7403333Y-2222880D02*
X-7355714Y-2146690D01*
X-7355714Y-2146690D02*
X-7284286Y-2108595D01*
X-7284286Y-2108595D02*
X-7236667Y-2108595D01*
X-7236667Y-2108595D02*
X-7165238Y-2146690D01*
X-7165238Y-2146690D02*
X-7141429Y-2184785D01*
X-6665238Y-2908595D02*
X-6950952Y-2908595D01*
X-6808095Y-2908595D02*
X-6808095Y-2108595D01*
X-6808095Y-2108595D02*
X-6855714Y-2222880D01*
X-6855714Y-2222880D02*
X-6903333Y-2299071D01*
X-6903333Y-2299071D02*
X-6950952Y-2337166D01*
X-6498572Y-2108595D02*
X-6189048Y-2108595D01*
X-6189048Y-2108595D02*
X-6355715Y-2413357D01*
X-6355715Y-2413357D02*
X-6284286Y-2413357D01*
X-6284286Y-2413357D02*
X-6236667Y-2451452D01*
X-6236667Y-2451452D02*
X-6212858Y-2489547D01*
X-6212858Y-2489547D02*
X-6189048Y-2565738D01*
X-6189048Y-2565738D02*
X-6189048Y-2756214D01*
X-6189048Y-2756214D02*
X-6212858Y-2832404D01*
X-6212858Y-2832404D02*
X-6236667Y-2870500D01*
X-6236667Y-2870500D02*
X-6284286Y-2908595D01*
X-6284286Y-2908595D02*
X-6427143Y-2908595D01*
X-6427143Y-2908595D02*
X-6474762Y-2870500D01*
X-6474762Y-2870500D02*
X-6498572Y-2832404D01*
X8243571Y4767596D02*
X8219762Y4729500D01*
X8219762Y4729500D02*
X8148333Y4691405D01*
X8148333Y4691405D02*
X8100714Y4691405D01*
X8100714Y4691405D02*
X8029286Y4729500D01*
X8029286Y4729500D02*
X7981667Y4805691D01*
X7981667Y4805691D02*
X7957857Y4881881D01*
X7957857Y4881881D02*
X7934048Y5034262D01*
X7934048Y5034262D02*
X7934048Y5148548D01*
X7934048Y5148548D02*
X7957857Y5300929D01*
X7957857Y5300929D02*
X7981667Y5377120D01*
X7981667Y5377120D02*
X8029286Y5453310D01*
X8029286Y5453310D02*
X8100714Y5491405D01*
X8100714Y5491405D02*
X8148333Y5491405D01*
X8148333Y5491405D02*
X8219762Y5453310D01*
X8219762Y5453310D02*
X8243571Y5415215D01*
X8719762Y4691405D02*
X8434048Y4691405D01*
X8576905Y4691405D02*
X8576905Y5491405D01*
X8576905Y5491405D02*
X8529286Y5377120D01*
X8529286Y5377120D02*
X8481667Y5300929D01*
X8481667Y5300929D02*
X8434048Y5262834D01*
X9148333Y5491405D02*
X9053095Y5491405D01*
X9053095Y5491405D02*
X9005476Y5453310D01*
X9005476Y5453310D02*
X8981666Y5415215D01*
X8981666Y5415215D02*
X8934047Y5300929D01*
X8934047Y5300929D02*
X8910238Y5148548D01*
X8910238Y5148548D02*
X8910238Y4843786D01*
X8910238Y4843786D02*
X8934047Y4767596D01*
X8934047Y4767596D02*
X8957857Y4729500D01*
X8957857Y4729500D02*
X9005476Y4691405D01*
X9005476Y4691405D02*
X9100714Y4691405D01*
X9100714Y4691405D02*
X9148333Y4729500D01*
X9148333Y4729500D02*
X9172142Y4767596D01*
X9172142Y4767596D02*
X9195952Y4843786D01*
X9195952Y4843786D02*
X9195952Y5034262D01*
X9195952Y5034262D02*
X9172142Y5110453D01*
X9172142Y5110453D02*
X9148333Y5148548D01*
X9148333Y5148548D02*
X9100714Y5186643D01*
X9100714Y5186643D02*
X9005476Y5186643D01*
X9005476Y5186643D02*
X8957857Y5148548D01*
X8957857Y5148548D02*
X8934047Y5110453D01*
X8934047Y5110453D02*
X8910238Y5034262D01*
X2952404Y8371667D02*
X2990500Y8347858D01*
X2990500Y8347858D02*
X3028595Y8276429D01*
X3028595Y8276429D02*
X3028595Y8228810D01*
X3028595Y8228810D02*
X2990500Y8157382D01*
X2990500Y8157382D02*
X2914309Y8109763D01*
X2914309Y8109763D02*
X2838119Y8085953D01*
X2838119Y8085953D02*
X2685738Y8062144D01*
X2685738Y8062144D02*
X2571452Y8062144D01*
X2571452Y8062144D02*
X2419071Y8085953D01*
X2419071Y8085953D02*
X2342880Y8109763D01*
X2342880Y8109763D02*
X2266690Y8157382D01*
X2266690Y8157382D02*
X2228595Y8228810D01*
X2228595Y8228810D02*
X2228595Y8276429D01*
X2228595Y8276429D02*
X2266690Y8347858D01*
X2266690Y8347858D02*
X2304785Y8371667D01*
X2571452Y8657382D02*
X2533357Y8609763D01*
X2533357Y8609763D02*
X2495261Y8585953D01*
X2495261Y8585953D02*
X2419071Y8562144D01*
X2419071Y8562144D02*
X2380976Y8562144D01*
X2380976Y8562144D02*
X2304785Y8585953D01*
X2304785Y8585953D02*
X2266690Y8609763D01*
X2266690Y8609763D02*
X2228595Y8657382D01*
X2228595Y8657382D02*
X2228595Y8752620D01*
X2228595Y8752620D02*
X2266690Y8800239D01*
X2266690Y8800239D02*
X2304785Y8824048D01*
X2304785Y8824048D02*
X2380976Y8847858D01*
X2380976Y8847858D02*
X2419071Y8847858D01*
X2419071Y8847858D02*
X2495261Y8824048D01*
X2495261Y8824048D02*
X2533357Y8800239D01*
X2533357Y8800239D02*
X2571452Y8752620D01*
X2571452Y8752620D02*
X2571452Y8657382D01*
X2571452Y8657382D02*
X2609547Y8609763D01*
X2609547Y8609763D02*
X2647642Y8585953D01*
X2647642Y8585953D02*
X2723833Y8562144D01*
X2723833Y8562144D02*
X2876214Y8562144D01*
X2876214Y8562144D02*
X2952404Y8585953D01*
X2952404Y8585953D02*
X2990500Y8609763D01*
X2990500Y8609763D02*
X3028595Y8657382D01*
X3028595Y8657382D02*
X3028595Y8752620D01*
X3028595Y8752620D02*
X2990500Y8800239D01*
X2990500Y8800239D02*
X2952404Y8824048D01*
X2952404Y8824048D02*
X2876214Y8847858D01*
X2876214Y8847858D02*
X2723833Y8847858D01*
X2723833Y8847858D02*
X2647642Y8824048D01*
X2647642Y8824048D02*
X2609547Y8800239D01*
X2609547Y8800239D02*
X2571452Y8752620D01*
X-18408596Y-2760238D02*
X-19208596Y-3093571D01*
X-18408596Y-3093571D02*
X-19208596Y-2760238D01*
X-19208596Y-3545952D02*
X-19208596Y-3260238D01*
X-19208596Y-3403095D02*
X-18408596Y-3403095D01*
X-18408596Y-3403095D02*
X-18522881Y-3355476D01*
X-18522881Y-3355476D02*
X-18599072Y-3307857D01*
X-18599072Y-3307857D02*
X-18637167Y-3260238D01*
X8243571Y3367596D02*
X8219762Y3329500D01*
X8219762Y3329500D02*
X8148333Y3291405D01*
X8148333Y3291405D02*
X8100714Y3291405D01*
X8100714Y3291405D02*
X8029286Y3329500D01*
X8029286Y3329500D02*
X7981667Y3405691D01*
X7981667Y3405691D02*
X7957857Y3481881D01*
X7957857Y3481881D02*
X7934048Y3634262D01*
X7934048Y3634262D02*
X7934048Y3748548D01*
X7934048Y3748548D02*
X7957857Y3900929D01*
X7957857Y3900929D02*
X7981667Y3977120D01*
X7981667Y3977120D02*
X8029286Y4053310D01*
X8029286Y4053310D02*
X8100714Y4091405D01*
X8100714Y4091405D02*
X8148333Y4091405D01*
X8148333Y4091405D02*
X8219762Y4053310D01*
X8219762Y4053310D02*
X8243571Y4015215D01*
X8719762Y3291405D02*
X8434048Y3291405D01*
X8576905Y3291405D02*
X8576905Y4091405D01*
X8576905Y4091405D02*
X8529286Y3977120D01*
X8529286Y3977120D02*
X8481667Y3900929D01*
X8481667Y3900929D02*
X8434048Y3862834D01*
X9172142Y4091405D02*
X8934047Y4091405D01*
X8934047Y4091405D02*
X8910238Y3710453D01*
X8910238Y3710453D02*
X8934047Y3748548D01*
X8934047Y3748548D02*
X8981666Y3786643D01*
X8981666Y3786643D02*
X9100714Y3786643D01*
X9100714Y3786643D02*
X9148333Y3748548D01*
X9148333Y3748548D02*
X9172142Y3710453D01*
X9172142Y3710453D02*
X9195952Y3634262D01*
X9195952Y3634262D02*
X9195952Y3443786D01*
X9195952Y3443786D02*
X9172142Y3367596D01*
X9172142Y3367596D02*
X9148333Y3329500D01*
X9148333Y3329500D02*
X9100714Y3291405D01*
X9100714Y3291405D02*
X8981666Y3291405D01*
X8981666Y3291405D02*
X8934047Y3329500D01*
X8934047Y3329500D02*
X8910238Y3367596D01*
X8606666Y8867596D02*
X8582857Y8829500D01*
X8582857Y8829500D02*
X8511428Y8791405D01*
X8511428Y8791405D02*
X8463809Y8791405D01*
X8463809Y8791405D02*
X8392381Y8829500D01*
X8392381Y8829500D02*
X8344762Y8905691D01*
X8344762Y8905691D02*
X8320952Y8981881D01*
X8320952Y8981881D02*
X8297143Y9134262D01*
X8297143Y9134262D02*
X8297143Y9248548D01*
X8297143Y9248548D02*
X8320952Y9400929D01*
X8320952Y9400929D02*
X8344762Y9477120D01*
X8344762Y9477120D02*
X8392381Y9553310D01*
X8392381Y9553310D02*
X8463809Y9591405D01*
X8463809Y9591405D02*
X8511428Y9591405D01*
X8511428Y9591405D02*
X8582857Y9553310D01*
X8582857Y9553310D02*
X8606666Y9515215D01*
X9035238Y9324739D02*
X9035238Y8791405D01*
X8916190Y9629500D02*
X8797143Y9058072D01*
X8797143Y9058072D02*
X9106666Y9058072D01*
X5828571Y-832404D02*
X5804762Y-870500D01*
X5804762Y-870500D02*
X5733333Y-908595D01*
X5733333Y-908595D02*
X5685714Y-908595D01*
X5685714Y-908595D02*
X5614286Y-870500D01*
X5614286Y-870500D02*
X5566667Y-794309D01*
X5566667Y-794309D02*
X5542857Y-718119D01*
X5542857Y-718119D02*
X5519048Y-565738D01*
X5519048Y-565738D02*
X5519048Y-451452D01*
X5519048Y-451452D02*
X5542857Y-299071D01*
X5542857Y-299071D02*
X5566667Y-222880D01*
X5566667Y-222880D02*
X5614286Y-146690D01*
X5614286Y-146690D02*
X5685714Y-108595D01*
X5685714Y-108595D02*
X5733333Y-108595D01*
X5733333Y-108595D02*
X5804762Y-146690D01*
X5804762Y-146690D02*
X5828571Y-184785D01*
X6304762Y-908595D02*
X6019048Y-908595D01*
X6161905Y-908595D02*
X6161905Y-108595D01*
X6161905Y-108595D02*
X6114286Y-222880D01*
X6114286Y-222880D02*
X6066667Y-299071D01*
X6066667Y-299071D02*
X6019048Y-337166D01*
X6495238Y-184785D02*
X6519047Y-146690D01*
X6519047Y-146690D02*
X6566666Y-108595D01*
X6566666Y-108595D02*
X6685714Y-108595D01*
X6685714Y-108595D02*
X6733333Y-146690D01*
X6733333Y-146690D02*
X6757142Y-184785D01*
X6757142Y-184785D02*
X6780952Y-260976D01*
X6780952Y-260976D02*
X6780952Y-337166D01*
X6780952Y-337166D02*
X6757142Y-451452D01*
X6757142Y-451452D02*
X6471428Y-908595D01*
X6471428Y-908595D02*
X6780952Y-908595D01*
D11*
X-45966429Y12578991D02*
X-45633096Y12578991D01*
X-45490239Y12055181D02*
X-45966429Y12055181D01*
X-45966429Y12055181D02*
X-45966429Y13055181D01*
X-45966429Y13055181D02*
X-45490239Y13055181D01*
X-45109286Y12102800D02*
X-44966429Y12055181D01*
X-44966429Y12055181D02*
X-44728334Y12055181D01*
X-44728334Y12055181D02*
X-44633096Y12102800D01*
X-44633096Y12102800D02*
X-44585477Y12150420D01*
X-44585477Y12150420D02*
X-44537858Y12245658D01*
X-44537858Y12245658D02*
X-44537858Y12340896D01*
X-44537858Y12340896D02*
X-44585477Y12436134D01*
X-44585477Y12436134D02*
X-44633096Y12483753D01*
X-44633096Y12483753D02*
X-44728334Y12531372D01*
X-44728334Y12531372D02*
X-44918810Y12578991D01*
X-44918810Y12578991D02*
X-45014048Y12626610D01*
X-45014048Y12626610D02*
X-45061667Y12674229D01*
X-45061667Y12674229D02*
X-45109286Y12769467D01*
X-45109286Y12769467D02*
X-45109286Y12864705D01*
X-45109286Y12864705D02*
X-45061667Y12959943D01*
X-45061667Y12959943D02*
X-45014048Y13007562D01*
X-45014048Y13007562D02*
X-44918810Y13055181D01*
X-44918810Y13055181D02*
X-44680715Y13055181D01*
X-44680715Y13055181D02*
X-44537858Y13007562D01*
X-44252143Y13055181D02*
X-43680715Y13055181D01*
X-43966429Y12055181D02*
X-43966429Y13055181D01*
X-43156905Y13055181D02*
X-42966429Y13055181D01*
X-42966429Y13055181D02*
X-42871191Y13007562D01*
X-42871191Y13007562D02*
X-42775953Y12912324D01*
X-42775953Y12912324D02*
X-42728334Y12721848D01*
X-42728334Y12721848D02*
X-42728334Y12388515D01*
X-42728334Y12388515D02*
X-42775953Y12198039D01*
X-42775953Y12198039D02*
X-42871191Y12102800D01*
X-42871191Y12102800D02*
X-42966429Y12055181D01*
X-42966429Y12055181D02*
X-43156905Y12055181D01*
X-43156905Y12055181D02*
X-43252143Y12102800D01*
X-43252143Y12102800D02*
X-43347381Y12198039D01*
X-43347381Y12198039D02*
X-43395000Y12388515D01*
X-43395000Y12388515D02*
X-43395000Y12721848D01*
X-43395000Y12721848D02*
X-43347381Y12912324D01*
X-43347381Y12912324D02*
X-43252143Y13007562D01*
X-43252143Y13007562D02*
X-43156905Y13055181D01*
X-42299762Y12055181D02*
X-42299762Y13055181D01*
X-42299762Y13055181D02*
X-41918810Y13055181D01*
X-41918810Y13055181D02*
X-41823572Y13007562D01*
X-41823572Y13007562D02*
X-41775953Y12959943D01*
X-41775953Y12959943D02*
X-41728334Y12864705D01*
X-41728334Y12864705D02*
X-41728334Y12721848D01*
X-41728334Y12721848D02*
X-41775953Y12626610D01*
X-41775953Y12626610D02*
X-41823572Y12578991D01*
X-41823572Y12578991D02*
X-41918810Y12531372D01*
X-41918810Y12531372D02*
X-42299762Y12531372D01*
X-40775953Y12055181D02*
X-41347381Y12055181D01*
X-41061667Y12055181D02*
X-41061667Y13055181D01*
X-41061667Y13055181D02*
X-41156905Y12912324D01*
X-41156905Y12912324D02*
X-41252143Y12817086D01*
X-41252143Y12817086D02*
X-41347381Y12769467D01*
D12*
X-47596Y9171667D02*
X-9500Y9147858D01*
X-9500Y9147858D02*
X28595Y9076429D01*
X28595Y9076429D02*
X28595Y9028810D01*
X28595Y9028810D02*
X-9500Y8957382D01*
X-9500Y8957382D02*
X-85691Y8909763D01*
X-85691Y8909763D02*
X-161881Y8885953D01*
X-161881Y8885953D02*
X-314262Y8862144D01*
X-314262Y8862144D02*
X-428548Y8862144D01*
X-428548Y8862144D02*
X-580929Y8885953D01*
X-580929Y8885953D02*
X-657120Y8909763D01*
X-657120Y8909763D02*
X-733310Y8957382D01*
X-733310Y8957382D02*
X-771405Y9028810D01*
X-771405Y9028810D02*
X-771405Y9076429D01*
X-771405Y9076429D02*
X-733310Y9147858D01*
X-733310Y9147858D02*
X-695215Y9171667D01*
X28595Y9409763D02*
X28595Y9505001D01*
X28595Y9505001D02*
X-9500Y9552620D01*
X-9500Y9552620D02*
X-47596Y9576429D01*
X-47596Y9576429D02*
X-161881Y9624048D01*
X-161881Y9624048D02*
X-314262Y9647858D01*
X-314262Y9647858D02*
X-619024Y9647858D01*
X-619024Y9647858D02*
X-695215Y9624048D01*
X-695215Y9624048D02*
X-733310Y9600239D01*
X-733310Y9600239D02*
X-771405Y9552620D01*
X-771405Y9552620D02*
X-771405Y9457382D01*
X-771405Y9457382D02*
X-733310Y9409763D01*
X-733310Y9409763D02*
X-695215Y9385953D01*
X-695215Y9385953D02*
X-619024Y9362144D01*
X-619024Y9362144D02*
X-428548Y9362144D01*
X-428548Y9362144D02*
X-352358Y9385953D01*
X-352358Y9385953D02*
X-314262Y9409763D01*
X-314262Y9409763D02*
X-276167Y9457382D01*
X-276167Y9457382D02*
X-276167Y9552620D01*
X-276167Y9552620D02*
X-314262Y9600239D01*
X-314262Y9600239D02*
X-352358Y9624048D01*
X-352358Y9624048D02*
X-428548Y9647858D01*
X-13132405Y-1781666D02*
X-13170500Y-1757857D01*
X-13170500Y-1757857D02*
X-13208596Y-1686428D01*
X-13208596Y-1686428D02*
X-13208596Y-1638809D01*
X-13208596Y-1638809D02*
X-13170500Y-1567381D01*
X-13170500Y-1567381D02*
X-13094310Y-1519762D01*
X-13094310Y-1519762D02*
X-13018120Y-1495952D01*
X-13018120Y-1495952D02*
X-12865739Y-1472143D01*
X-12865739Y-1472143D02*
X-12751453Y-1472143D01*
X-12751453Y-1472143D02*
X-12599072Y-1495952D01*
X-12599072Y-1495952D02*
X-12522881Y-1519762D01*
X-12522881Y-1519762D02*
X-12446691Y-1567381D01*
X-12446691Y-1567381D02*
X-12408596Y-1638809D01*
X-12408596Y-1638809D02*
X-12408596Y-1686428D01*
X-12408596Y-1686428D02*
X-12446691Y-1757857D01*
X-12446691Y-1757857D02*
X-12484786Y-1781666D01*
X-12484786Y-1972143D02*
X-12446691Y-1995952D01*
X-12446691Y-1995952D02*
X-12408596Y-2043571D01*
X-12408596Y-2043571D02*
X-12408596Y-2162619D01*
X-12408596Y-2162619D02*
X-12446691Y-2210238D01*
X-12446691Y-2210238D02*
X-12484786Y-2234047D01*
X-12484786Y-2234047D02*
X-12560977Y-2257857D01*
X-12560977Y-2257857D02*
X-12637167Y-2257857D01*
X-12637167Y-2257857D02*
X-12751453Y-2234047D01*
X-12751453Y-2234047D02*
X-13208596Y-1948333D01*
X-13208596Y-1948333D02*
X-13208596Y-2257857D01*
X-9496717Y16118405D02*
X-9496717Y15470786D01*
X-9496717Y15470786D02*
X-9472907Y15394596D01*
X-9472907Y15394596D02*
X-9449098Y15356500D01*
X-9449098Y15356500D02*
X-9401479Y15318405D01*
X-9401479Y15318405D02*
X-9306241Y15318405D01*
X-9306241Y15318405D02*
X-9258622Y15356500D01*
X-9258622Y15356500D02*
X-9234812Y15394596D01*
X-9234812Y15394596D02*
X-9211003Y15470786D01*
X-9211003Y15470786D02*
X-9211003Y16118405D01*
X-8996716Y16042215D02*
X-8972907Y16080310D01*
X-8972907Y16080310D02*
X-8925288Y16118405D01*
X-8925288Y16118405D02*
X-8806240Y16118405D01*
X-8806240Y16118405D02*
X-8758621Y16080310D01*
X-8758621Y16080310D02*
X-8734812Y16042215D01*
X-8734812Y16042215D02*
X-8711002Y15966024D01*
X-8711002Y15966024D02*
X-8711002Y15889834D01*
X-8711002Y15889834D02*
X-8734812Y15775548D01*
X-8734812Y15775548D02*
X-9020526Y15318405D01*
X-9020526Y15318405D02*
X-8711002Y15318405D01*
X-11208596Y-1481666D02*
X-10827643Y-1315000D01*
X-11208596Y-1195952D02*
X-10408596Y-1195952D01*
X-10408596Y-1195952D02*
X-10408596Y-1386428D01*
X-10408596Y-1386428D02*
X-10446691Y-1434047D01*
X-10446691Y-1434047D02*
X-10484786Y-1457857D01*
X-10484786Y-1457857D02*
X-10560977Y-1481666D01*
X-10560977Y-1481666D02*
X-10675262Y-1481666D01*
X-10675262Y-1481666D02*
X-10751453Y-1457857D01*
X-10751453Y-1457857D02*
X-10789548Y-1434047D01*
X-10789548Y-1434047D02*
X-10827643Y-1386428D01*
X-10827643Y-1386428D02*
X-10827643Y-1195952D01*
X-10408596Y-1934047D02*
X-10408596Y-1695952D01*
X-10408596Y-1695952D02*
X-10789548Y-1672143D01*
X-10789548Y-1672143D02*
X-10751453Y-1695952D01*
X-10751453Y-1695952D02*
X-10713358Y-1743571D01*
X-10713358Y-1743571D02*
X-10713358Y-1862619D01*
X-10713358Y-1862619D02*
X-10751453Y-1910238D01*
X-10751453Y-1910238D02*
X-10789548Y-1934047D01*
X-10789548Y-1934047D02*
X-10865739Y-1957857D01*
X-10865739Y-1957857D02*
X-11056215Y-1957857D01*
X-11056215Y-1957857D02*
X-11132405Y-1934047D01*
X-11132405Y-1934047D02*
X-11170500Y-1910238D01*
X-11170500Y-1910238D02*
X-11208596Y-1862619D01*
X-11208596Y-1862619D02*
X-11208596Y-1743571D01*
X-11208596Y-1743571D02*
X-11170500Y-1695952D01*
X-11170500Y-1695952D02*
X-11132405Y-1672143D01*
X11284047Y17191405D02*
X11284047Y16543786D01*
X11284047Y16543786D02*
X11307857Y16467596D01*
X11307857Y16467596D02*
X11331666Y16429500D01*
X11331666Y16429500D02*
X11379285Y16391405D01*
X11379285Y16391405D02*
X11474523Y16391405D01*
X11474523Y16391405D02*
X11522142Y16429500D01*
X11522142Y16429500D02*
X11545952Y16467596D01*
X11545952Y16467596D02*
X11569761Y16543786D01*
X11569761Y16543786D02*
X11569761Y17191405D01*
X12069762Y16391405D02*
X11784048Y16391405D01*
X11926905Y16391405D02*
X11926905Y17191405D01*
X11926905Y17191405D02*
X11879286Y17077120D01*
X11879286Y17077120D02*
X11831667Y17000929D01*
X11831667Y17000929D02*
X11784048Y16962834D01*
X-3633717Y4659405D02*
X-3633717Y4011786D01*
X-3633717Y4011786D02*
X-3609907Y3935596D01*
X-3609907Y3935596D02*
X-3586098Y3897500D01*
X-3586098Y3897500D02*
X-3538479Y3859405D01*
X-3538479Y3859405D02*
X-3443241Y3859405D01*
X-3443241Y3859405D02*
X-3395622Y3897500D01*
X-3395622Y3897500D02*
X-3371812Y3935596D01*
X-3371812Y3935596D02*
X-3348003Y4011786D01*
X-3348003Y4011786D02*
X-3348003Y4659405D01*
X-3157526Y4659405D02*
X-2848002Y4659405D01*
X-2848002Y4659405D02*
X-3014669Y4354643D01*
X-3014669Y4354643D02*
X-2943240Y4354643D01*
X-2943240Y4354643D02*
X-2895621Y4316548D01*
X-2895621Y4316548D02*
X-2871812Y4278453D01*
X-2871812Y4278453D02*
X-2848002Y4202262D01*
X-2848002Y4202262D02*
X-2848002Y4011786D01*
X-2848002Y4011786D02*
X-2871812Y3935596D01*
X-2871812Y3935596D02*
X-2895621Y3897500D01*
X-2895621Y3897500D02*
X-2943240Y3859405D01*
X-2943240Y3859405D02*
X-3086097Y3859405D01*
X-3086097Y3859405D02*
X-3133716Y3897500D01*
X-3133716Y3897500D02*
X-3157526Y3935596D01*
X-7141429Y1367596D02*
X-7165238Y1329500D01*
X-7165238Y1329500D02*
X-7236667Y1291405D01*
X-7236667Y1291405D02*
X-7284286Y1291405D01*
X-7284286Y1291405D02*
X-7355714Y1329500D01*
X-7355714Y1329500D02*
X-7403333Y1405691D01*
X-7403333Y1405691D02*
X-7427143Y1481881D01*
X-7427143Y1481881D02*
X-7450952Y1634262D01*
X-7450952Y1634262D02*
X-7450952Y1748548D01*
X-7450952Y1748548D02*
X-7427143Y1900929D01*
X-7427143Y1900929D02*
X-7403333Y1977120D01*
X-7403333Y1977120D02*
X-7355714Y2053310D01*
X-7355714Y2053310D02*
X-7284286Y2091405D01*
X-7284286Y2091405D02*
X-7236667Y2091405D01*
X-7236667Y2091405D02*
X-7165238Y2053310D01*
X-7165238Y2053310D02*
X-7141429Y2015215D01*
X-6665238Y1291405D02*
X-6950952Y1291405D01*
X-6808095Y1291405D02*
X-6808095Y2091405D01*
X-6808095Y2091405D02*
X-6855714Y1977120D01*
X-6855714Y1977120D02*
X-6903333Y1900929D01*
X-6903333Y1900929D02*
X-6950952Y1862834D01*
X-6189048Y1291405D02*
X-6474762Y1291405D01*
X-6331905Y1291405D02*
X-6331905Y2091405D01*
X-6331905Y2091405D02*
X-6379524Y1977120D01*
X-6379524Y1977120D02*
X-6427143Y1900929D01*
X-6427143Y1900929D02*
X-6474762Y1862834D01*
D11*
X-6630245Y26053565D02*
X-6630245Y25339280D01*
X-6630245Y25339280D02*
X-6677864Y25196423D01*
X-6677864Y25196423D02*
X-6773102Y25101184D01*
X-6773102Y25101184D02*
X-6915959Y25053565D01*
X-6915959Y25053565D02*
X-7011197Y25053565D01*
X-6249292Y26053565D02*
X-5630245Y26053565D01*
X-5630245Y26053565D02*
X-5963578Y25672613D01*
X-5963578Y25672613D02*
X-5820721Y25672613D01*
X-5820721Y25672613D02*
X-5725483Y25624994D01*
X-5725483Y25624994D02*
X-5677864Y25577375D01*
X-5677864Y25577375D02*
X-5630245Y25482137D01*
X-5630245Y25482137D02*
X-5630245Y25244042D01*
X-5630245Y25244042D02*
X-5677864Y25148804D01*
X-5677864Y25148804D02*
X-5725483Y25101184D01*
X-5725483Y25101184D02*
X-5820721Y25053565D01*
X-5820721Y25053565D02*
X-6106435Y25053565D01*
X-6106435Y25053565D02*
X-6201673Y25101184D01*
X-6201673Y25101184D02*
X-6249292Y25148804D01*
D12*
X-13132405Y-4381666D02*
X-13170500Y-4357857D01*
X-13170500Y-4357857D02*
X-13208596Y-4286428D01*
X-13208596Y-4286428D02*
X-13208596Y-4238809D01*
X-13208596Y-4238809D02*
X-13170500Y-4167381D01*
X-13170500Y-4167381D02*
X-13094310Y-4119762D01*
X-13094310Y-4119762D02*
X-13018120Y-4095952D01*
X-13018120Y-4095952D02*
X-12865739Y-4072143D01*
X-12865739Y-4072143D02*
X-12751453Y-4072143D01*
X-12751453Y-4072143D02*
X-12599072Y-4095952D01*
X-12599072Y-4095952D02*
X-12522881Y-4119762D01*
X-12522881Y-4119762D02*
X-12446691Y-4167381D01*
X-12446691Y-4167381D02*
X-12408596Y-4238809D01*
X-12408596Y-4238809D02*
X-12408596Y-4286428D01*
X-12408596Y-4286428D02*
X-12446691Y-4357857D01*
X-12446691Y-4357857D02*
X-12484786Y-4381666D01*
X-12408596Y-4548333D02*
X-12408596Y-4857857D01*
X-12408596Y-4857857D02*
X-12713358Y-4691190D01*
X-12713358Y-4691190D02*
X-12713358Y-4762619D01*
X-12713358Y-4762619D02*
X-12751453Y-4810238D01*
X-12751453Y-4810238D02*
X-12789548Y-4834047D01*
X-12789548Y-4834047D02*
X-12865739Y-4857857D01*
X-12865739Y-4857857D02*
X-13056215Y-4857857D01*
X-13056215Y-4857857D02*
X-13132405Y-4834047D01*
X-13132405Y-4834047D02*
X-13170500Y-4810238D01*
X-13170500Y-4810238D02*
X-13208596Y-4762619D01*
X-13208596Y-4762619D02*
X-13208596Y-4619762D01*
X-13208596Y-4619762D02*
X-13170500Y-4572143D01*
X-13170500Y-4572143D02*
X-13132405Y-4548333D01*
X3952404Y8133572D02*
X3990500Y8109763D01*
X3990500Y8109763D02*
X4028595Y8038334D01*
X4028595Y8038334D02*
X4028595Y7990715D01*
X4028595Y7990715D02*
X3990500Y7919287D01*
X3990500Y7919287D02*
X3914309Y7871668D01*
X3914309Y7871668D02*
X3838119Y7847858D01*
X3838119Y7847858D02*
X3685738Y7824049D01*
X3685738Y7824049D02*
X3571452Y7824049D01*
X3571452Y7824049D02*
X3419071Y7847858D01*
X3419071Y7847858D02*
X3342880Y7871668D01*
X3342880Y7871668D02*
X3266690Y7919287D01*
X3266690Y7919287D02*
X3228595Y7990715D01*
X3228595Y7990715D02*
X3228595Y8038334D01*
X3228595Y8038334D02*
X3266690Y8109763D01*
X3266690Y8109763D02*
X3304785Y8133572D01*
X4028595Y8609763D02*
X4028595Y8324049D01*
X4028595Y8466906D02*
X3228595Y8466906D01*
X3228595Y8466906D02*
X3342880Y8419287D01*
X3342880Y8419287D02*
X3419071Y8371668D01*
X3419071Y8371668D02*
X3457166Y8324049D01*
X3228595Y8919286D02*
X3228595Y8966905D01*
X3228595Y8966905D02*
X3266690Y9014524D01*
X3266690Y9014524D02*
X3304785Y9038334D01*
X3304785Y9038334D02*
X3380976Y9062143D01*
X3380976Y9062143D02*
X3533357Y9085953D01*
X3533357Y9085953D02*
X3723833Y9085953D01*
X3723833Y9085953D02*
X3876214Y9062143D01*
X3876214Y9062143D02*
X3952404Y9038334D01*
X3952404Y9038334D02*
X3990500Y9014524D01*
X3990500Y9014524D02*
X4028595Y8966905D01*
X4028595Y8966905D02*
X4028595Y8919286D01*
X4028595Y8919286D02*
X3990500Y8871667D01*
X3990500Y8871667D02*
X3952404Y8847858D01*
X3952404Y8847858D02*
X3876214Y8824048D01*
X3876214Y8824048D02*
X3723833Y8800239D01*
X3723833Y8800239D02*
X3533357Y8800239D01*
X3533357Y8800239D02*
X3380976Y8824048D01*
X3380976Y8824048D02*
X3304785Y8847858D01*
X3304785Y8847858D02*
X3266690Y8871667D01*
X3266690Y8871667D02*
X3228595Y8919286D01*
D11*
X-33620690Y34569967D02*
X-32906405Y34569967D01*
X-32906405Y34569967D02*
X-32763548Y34522348D01*
X-32763548Y34522348D02*
X-32668309Y34427110D01*
X-32668309Y34427110D02*
X-32620690Y34284253D01*
X-32620690Y34284253D02*
X-32620690Y34189015D01*
X-33287357Y35474729D02*
X-32620690Y35474729D01*
X-33668309Y35236634D02*
X-32954024Y34998539D01*
X-32954024Y34998539D02*
X-32954024Y35617586D01*
D12*
X2128595Y7471667D02*
X1747642Y7305001D01*
X2128595Y7185953D02*
X1328595Y7185953D01*
X1328595Y7185953D02*
X1328595Y7376429D01*
X1328595Y7376429D02*
X1366690Y7424048D01*
X1366690Y7424048D02*
X1404785Y7447858D01*
X1404785Y7447858D02*
X1480976Y7471667D01*
X1480976Y7471667D02*
X1595261Y7471667D01*
X1595261Y7471667D02*
X1671452Y7447858D01*
X1671452Y7447858D02*
X1709547Y7424048D01*
X1709547Y7424048D02*
X1747642Y7376429D01*
X1747642Y7376429D02*
X1747642Y7185953D01*
X1595261Y7900239D02*
X2128595Y7900239D01*
X1290500Y7781191D02*
X1861928Y7662144D01*
X1861928Y7662144D02*
X1861928Y7971667D01*
X277404Y-6256428D02*
X315500Y-6280237D01*
X315500Y-6280237D02*
X353595Y-6351666D01*
X353595Y-6351666D02*
X353595Y-6399285D01*
X353595Y-6399285D02*
X315500Y-6470713D01*
X315500Y-6470713D02*
X239309Y-6518332D01*
X239309Y-6518332D02*
X163119Y-6542142D01*
X163119Y-6542142D02*
X10738Y-6565951D01*
X10738Y-6565951D02*
X-103548Y-6565951D01*
X-103548Y-6565951D02*
X-255929Y-6542142D01*
X-255929Y-6542142D02*
X-332120Y-6518332D01*
X-332120Y-6518332D02*
X-408310Y-6470713D01*
X-408310Y-6470713D02*
X-446405Y-6399285D01*
X-446405Y-6399285D02*
X-446405Y-6351666D01*
X-446405Y-6351666D02*
X-408310Y-6280237D01*
X-408310Y-6280237D02*
X-370215Y-6256428D01*
X353595Y-5780237D02*
X353595Y-6065951D01*
X353595Y-5923094D02*
X-446405Y-5923094D01*
X-446405Y-5923094D02*
X-332120Y-5970713D01*
X-332120Y-5970713D02*
X-255929Y-6018332D01*
X-255929Y-6018332D02*
X-217834Y-6065951D01*
X-179739Y-5351666D02*
X353595Y-5351666D01*
X-484500Y-5470714D02*
X86928Y-5589761D01*
X86928Y-5589761D02*
X86928Y-5280238D01*
X-7871405Y17256667D02*
X-8252358Y17090001D01*
X-7871405Y16970953D02*
X-8671405Y16970953D01*
X-8671405Y16970953D02*
X-8671405Y17161429D01*
X-8671405Y17161429D02*
X-8633310Y17209048D01*
X-8633310Y17209048D02*
X-8595215Y17232858D01*
X-8595215Y17232858D02*
X-8519024Y17256667D01*
X-8519024Y17256667D02*
X-8404739Y17256667D01*
X-8404739Y17256667D02*
X-8328548Y17232858D01*
X-8328548Y17232858D02*
X-8290453Y17209048D01*
X-8290453Y17209048D02*
X-8252358Y17161429D01*
X-8252358Y17161429D02*
X-8252358Y16970953D01*
X-8595215Y17447144D02*
X-8633310Y17470953D01*
X-8633310Y17470953D02*
X-8671405Y17518572D01*
X-8671405Y17518572D02*
X-8671405Y17637620D01*
X-8671405Y17637620D02*
X-8633310Y17685239D01*
X-8633310Y17685239D02*
X-8595215Y17709048D01*
X-8595215Y17709048D02*
X-8519024Y17732858D01*
X-8519024Y17732858D02*
X-8442834Y17732858D01*
X-8442834Y17732858D02*
X-8328548Y17709048D01*
X-8328548Y17709048D02*
X-7871405Y17423334D01*
X-7871405Y17423334D02*
X-7871405Y17732858D01*
%TO.C,P1*%
D13*
X-44184631Y28123990D02*
X-44524631Y28123990D01*
X-47324631Y34373990D02*
G75*
G02*
X-46967676Y35090715I1400000J-250000D01*
G01*
X-46949631Y27398990D02*
G75*
G02*
X-47314511Y28110392I1025000J975000D01*
G01*
X-44899631Y35098990D02*
G75*
G02*
X-44534752Y34387588I-1024991J-974993D01*
G01*
X-44524631Y28123990D02*
G75*
G02*
X-44881586Y27407265I-1399998J249999D01*
G01*
%TO.C,X1*%
D11*
X-17420000Y-965000D02*
G75*
G02*
X-17570000Y-965000I-75000J0D01*
G01*
X-17570000Y-965000D02*
G75*
G02*
X-17420000Y-965000I75000J0D01*
G01*
%TO.C,ESTOP1*%
D13*
X-47307500Y9590000D02*
X-47307500Y7490000D01*
X-47307500Y4890000D02*
X-47307500Y4380000D01*
X-47307500Y4380000D02*
X-46787500Y4380000D01*
X-46787500Y7720000D02*
X-46787500Y7490000D01*
X-46787500Y7720000D02*
X-46247500Y7720000D01*
X-46787500Y4890000D02*
X-46787500Y4380000D01*
X-45147500Y7720000D02*
X-41747500Y7720000D01*
X-40647500Y7720000D02*
X-40107500Y7720000D01*
X-40107500Y7720000D02*
X-40107500Y7490000D01*
X-40107500Y4890000D02*
X-40107500Y4380000D01*
X-40107500Y4380000D02*
X-39587500Y4380000D01*
X-39587500Y9590000D02*
X-39587500Y7490000D01*
X-39587500Y4890000D02*
X-39587500Y4380000D01*
%TO.C,BOOT_SEL1*%
X-10035000Y23190000D02*
X-10035000Y18790000D01*
X-8535000Y23190000D02*
X-8435000Y23190000D01*
X-8535000Y18790000D02*
X-8435000Y18790000D01*
X-6935000Y18790000D02*
X-6935000Y23190000D01*
%TO.C,U2*%
D10*
X-10785000Y15180000D02*
G75*
G02*
X-10985000Y15180000I-100000J0D01*
G01*
X-10985000Y15180000D02*
G75*
G02*
X-10785000Y15180000I100000J0D01*
G01*
%TO.C,U3*%
D11*
X-3960000Y3355000D02*
G75*
G02*
X-4110000Y3355000I-75000J0D01*
G01*
X-4110000Y3355000D02*
G75*
G02*
X-3960000Y3355000I75000J0D01*
G01*
%TO.C,J3*%
D13*
X-4991616Y23641911D02*
X-4991616Y24911911D01*
X-4151616Y26071911D02*
X-4151616Y26301911D01*
X-3721616Y23641911D02*
X-4991616Y23641911D01*
X-3291616Y26071911D02*
X-3291616Y26301911D01*
X-2451616Y26301911D02*
X-2451616Y29061911D01*
X-1611616Y35061911D02*
X-751616Y35061911D01*
X-1611616Y29061911D02*
X-1611616Y35061911D01*
X-1611616Y25989269D02*
X-1611616Y26301911D01*
X-751616Y35061911D02*
X-751616Y29061911D01*
X-751616Y25989269D02*
X-751616Y26301911D01*
X88384Y26301911D02*
X88384Y29061911D01*
X928384Y35061911D02*
X1788384Y35061911D01*
X928384Y29061911D02*
X928384Y35061911D01*
X928384Y25989269D02*
X928384Y26301911D01*
X1788384Y35061911D02*
X1788384Y29061911D01*
X1788384Y25989269D02*
X1788384Y26301911D01*
X2628384Y26301911D02*
X2628384Y29061911D01*
X3468384Y35061911D02*
X4328384Y35061911D01*
X3468384Y29061911D02*
X3468384Y35061911D01*
X3468384Y25989269D02*
X3468384Y26301911D01*
X4328384Y35061911D02*
X4328384Y29061911D01*
X4328384Y25989269D02*
X4328384Y26301911D01*
X-5101616Y29061911D02*
X5278384Y29061911D01*
X5278384Y26301911D01*
X-5101616Y26301911D01*
X-5101616Y29061911D01*
X-4151616Y35061911D02*
X-3291616Y35061911D01*
X-3291616Y29061911D01*
X-4151616Y29061911D01*
X-4151616Y35061911D01*
G36*
X-4151616Y35061911D02*
G01*
X-3291616Y35061911D01*
X-3291616Y29061911D01*
X-4151616Y29061911D01*
X-4151616Y35061911D01*
G37*
%TO.C,J4*%
X-32230509Y33878300D02*
X-32230509Y26198300D01*
X-32230509Y33878300D02*
X-29570509Y33878300D01*
X-32230509Y26198300D02*
X-29570509Y26198300D01*
X-30900509Y36478300D02*
X-29570509Y36478300D01*
X-29570509Y36478300D02*
X-29570509Y35148300D01*
X-29570509Y33878300D02*
X-29570509Y26198300D01*
%TD*%
G36*
X-26540809Y7481093D02*
G01*
X-26504845Y7431593D01*
X-26500000Y7401000D01*
X-26500000Y-2401000D01*
X-26518907Y-2459191D01*
X-26568407Y-2495155D01*
X-26599000Y-2500000D01*
X-36401000Y-2500000D01*
X-36459191Y-2481093D01*
X-36495155Y-2431593D01*
X-36500000Y-2401000D01*
X-36500000Y7401000D01*
X-36481093Y7459191D01*
X-36431593Y7495155D01*
X-36401000Y7500000D01*
X-26599000Y7500000D01*
X-26540809Y7481093D01*
G37*
%LPC*%
D14*
%TO.C,U3*%
G36*
X-1732433Y-1484158D02*
G01*
X-1712164Y-1559805D01*
X-1673006Y-1627628D01*
X-1617628Y-1683006D01*
X-1549805Y-1722164D01*
X-1474158Y-1742433D01*
X-1435000Y-1742433D01*
X-1435000Y-1945000D01*
X-1935000Y-1945000D01*
X-1935000Y-1445000D01*
X-1732433Y-1445000D01*
X-1732433Y-1484158D01*
G37*
G36*
X-1435000Y1052433D02*
G01*
X-1474158Y1052433D01*
X-1549805Y1032164D01*
X-1617628Y993006D01*
X-1673006Y937628D01*
X-1712164Y869805D01*
X-1732433Y794158D01*
X-1732433Y755000D01*
X-1935000Y755000D01*
X-1935000Y1255000D01*
X-1435000Y1255000D01*
X-1435000Y1052433D01*
G37*
G36*
X1265000Y-1945000D02*
G01*
X765000Y-1945000D01*
X765000Y-1742433D01*
X804158Y-1742433D01*
X879805Y-1722164D01*
X947628Y-1683006D01*
X1003006Y-1627628D01*
X1042164Y-1559805D01*
X1062433Y-1484158D01*
X1062433Y-1445000D01*
X1265000Y-1445000D01*
X1265000Y-1945000D01*
G37*
G36*
X1265000Y755000D02*
G01*
X1062433Y755000D01*
X1062433Y794158D01*
X1042164Y869805D01*
X1003006Y937628D01*
X947628Y993006D01*
X879805Y1032164D01*
X804158Y1052433D01*
X765000Y1052433D01*
X765000Y1255000D01*
X1265000Y1255000D01*
X1265000Y755000D01*
G37*
G36*
X-1732433Y-384158D02*
G01*
X-1712164Y-459805D01*
X-1673006Y-527628D01*
X-1617628Y-583006D01*
X-1549805Y-622164D01*
X-1474158Y-642433D01*
X-1395842Y-642433D01*
X-1320195Y-622164D01*
X-1252372Y-583006D01*
X-1196994Y-527628D01*
X-1157836Y-459805D01*
X-1137567Y-384158D01*
X-1137567Y-345000D01*
X-632433Y-345000D01*
X-632433Y-384158D01*
X-612164Y-459805D01*
X-573006Y-527628D01*
X-517628Y-583006D01*
X-449805Y-622164D01*
X-374158Y-642433D01*
X-335000Y-642433D01*
X-335000Y-1147567D01*
X-374158Y-1147567D01*
X-449805Y-1167836D01*
X-517628Y-1206994D01*
X-573006Y-1262372D01*
X-612164Y-1330195D01*
X-632433Y-1405842D01*
X-632433Y-1484158D01*
X-612164Y-1559805D01*
X-573006Y-1627628D01*
X-517628Y-1683006D01*
X-449805Y-1722164D01*
X-374158Y-1742433D01*
X-335000Y-1742433D01*
X-335000Y-1945000D01*
X-1435000Y-1945000D01*
X-1435000Y-1742433D01*
X-1395842Y-1742433D01*
X-1320195Y-1722164D01*
X-1252372Y-1683006D01*
X-1196994Y-1627628D01*
X-1157836Y-1559805D01*
X-1137567Y-1484158D01*
X-1137567Y-1405842D01*
X-1157836Y-1330195D01*
X-1196994Y-1262372D01*
X-1252372Y-1206994D01*
X-1320195Y-1167836D01*
X-1395842Y-1147567D01*
X-1474158Y-1147567D01*
X-1549805Y-1167836D01*
X-1617628Y-1206994D01*
X-1673006Y-1262372D01*
X-1712164Y-1330195D01*
X-1732433Y-1405842D01*
X-1732433Y-1445000D01*
X-1935000Y-1445000D01*
X-1935000Y-345000D01*
X-1732433Y-345000D01*
X-1732433Y-384158D01*
G37*
G36*
X-335000Y1052433D02*
G01*
X-374158Y1052433D01*
X-449805Y1032164D01*
X-517628Y993006D01*
X-573006Y937628D01*
X-612164Y869805D01*
X-632433Y794158D01*
X-632433Y715842D01*
X-612164Y640195D01*
X-573006Y572372D01*
X-517628Y516994D01*
X-449805Y477836D01*
X-374158Y457567D01*
X-335000Y457567D01*
X-335000Y-47567D01*
X-374158Y-47567D01*
X-449805Y-67836D01*
X-517628Y-106994D01*
X-573006Y-162372D01*
X-612164Y-230195D01*
X-632433Y-305842D01*
X-632433Y-345000D01*
X-1137567Y-345000D01*
X-1137567Y-305842D01*
X-1157836Y-230195D01*
X-1196994Y-162372D01*
X-1252372Y-106994D01*
X-1320195Y-67836D01*
X-1395842Y-47567D01*
X-1474158Y-47567D01*
X-1549805Y-67836D01*
X-1617628Y-106994D01*
X-1673006Y-162372D01*
X-1712164Y-230195D01*
X-1732433Y-305842D01*
X-1732433Y-345000D01*
X-1935000Y-345000D01*
X-1935000Y755000D01*
X-1732433Y755000D01*
X-1732433Y715842D01*
X-1712164Y640195D01*
X-1673006Y572372D01*
X-1617628Y516994D01*
X-1549805Y477836D01*
X-1474158Y457567D01*
X-1395842Y457567D01*
X-1320195Y477836D01*
X-1252372Y516994D01*
X-1196994Y572372D01*
X-1157836Y640195D01*
X-1137567Y715842D01*
X-1137567Y794158D01*
X-1157836Y869805D01*
X-1196994Y937628D01*
X-1252372Y993006D01*
X-1320195Y1032164D01*
X-1395842Y1052433D01*
X-1435000Y1052433D01*
X-1435000Y1255000D01*
X-335000Y1255000D01*
X-335000Y1052433D01*
G37*
G36*
X467567Y-384158D02*
G01*
X487836Y-459805D01*
X526994Y-527628D01*
X582372Y-583006D01*
X650195Y-622164D01*
X725842Y-642433D01*
X804158Y-642433D01*
X879805Y-622164D01*
X947628Y-583006D01*
X1003006Y-527628D01*
X1042164Y-459805D01*
X1062433Y-384158D01*
X1062433Y-345000D01*
X1265000Y-345000D01*
X1265000Y-1445000D01*
X1062433Y-1445000D01*
X1062433Y-1405842D01*
X1042164Y-1330195D01*
X1003006Y-1262372D01*
X947628Y-1206994D01*
X879805Y-1167836D01*
X804158Y-1147567D01*
X725842Y-1147567D01*
X650195Y-1167836D01*
X582372Y-1206994D01*
X526994Y-1262372D01*
X487836Y-1330195D01*
X467567Y-1405842D01*
X467567Y-1484158D01*
X487836Y-1559805D01*
X526994Y-1627628D01*
X582372Y-1683006D01*
X650195Y-1722164D01*
X725842Y-1742433D01*
X765000Y-1742433D01*
X765000Y-1945000D01*
X-335000Y-1945000D01*
X-335000Y-1742433D01*
X-295842Y-1742433D01*
X-220195Y-1722164D01*
X-152372Y-1683006D01*
X-96994Y-1627628D01*
X-57836Y-1559805D01*
X-37567Y-1484158D01*
X-37567Y-1405842D01*
X-57836Y-1330195D01*
X-96994Y-1262372D01*
X-152372Y-1206994D01*
X-220195Y-1167836D01*
X-295842Y-1147567D01*
X-335000Y-1147567D01*
X-335000Y-642433D01*
X-295842Y-642433D01*
X-220195Y-622164D01*
X-152372Y-583006D01*
X-96994Y-527628D01*
X-57836Y-459805D01*
X-37567Y-384158D01*
X-37567Y-345000D01*
X467567Y-345000D01*
X467567Y-384158D01*
G37*
G36*
X765000Y1052433D02*
G01*
X725842Y1052433D01*
X650195Y1032164D01*
X582372Y993006D01*
X526994Y937628D01*
X487836Y869805D01*
X467567Y794158D01*
X467567Y715842D01*
X487836Y640195D01*
X526994Y572372D01*
X582372Y516994D01*
X650195Y477836D01*
X725842Y457567D01*
X804158Y457567D01*
X879805Y477836D01*
X947628Y516994D01*
X1003006Y572372D01*
X1042164Y640195D01*
X1062433Y715842D01*
X1062433Y755000D01*
X1265000Y755000D01*
X1265000Y-345000D01*
X1062433Y-345000D01*
X1062433Y-305842D01*
X1042164Y-230195D01*
X1003006Y-162372D01*
X947628Y-106994D01*
X879805Y-67836D01*
X804158Y-47567D01*
X725842Y-47567D01*
X650195Y-67836D01*
X582372Y-106994D01*
X526994Y-162372D01*
X487836Y-230195D01*
X467567Y-305842D01*
X467567Y-345000D01*
X-37567Y-345000D01*
X-37567Y-305842D01*
X-57836Y-230195D01*
X-96994Y-162372D01*
X-152372Y-106994D01*
X-220195Y-67836D01*
X-295842Y-47567D01*
X-335000Y-47567D01*
X-335000Y457567D01*
X-295842Y457567D01*
X-220195Y477836D01*
X-152372Y516994D01*
X-96994Y572372D01*
X-57836Y640195D01*
X-37567Y715842D01*
X-37567Y794158D01*
X-57836Y869805D01*
X-96994Y937628D01*
X-152372Y993006D01*
X-220195Y1032164D01*
X-295842Y1052433D01*
X-335000Y1052433D01*
X-335000Y1255000D01*
X765000Y1255000D01*
X765000Y1052433D01*
G37*
%TD*%
D15*
%TO.C,C5*%
X-3675000Y16825000D03*
X-4625000Y16825000D03*
%TD*%
%TO.C,C7*%
X1200000Y-4835000D03*
X2150000Y-4835000D03*
%TD*%
D16*
%TO.C,C1*%
X6702500Y23155000D03*
X8502500Y23155000D03*
%TD*%
D15*
%TO.C,R1*%
X-9335000Y16865000D03*
X-9335000Y17815000D03*
%TD*%
%TO.C,R3*%
X665000Y6615000D03*
X665000Y5665000D03*
%TD*%
%TO.C,C6*%
X-1335000Y6665000D03*
X-1335000Y7615000D03*
%TD*%
D17*
%TO.C,P1*%
X-44654631Y28448990D03*
X-44654631Y29248990D03*
X-44654631Y30048990D03*
X-44654631Y30848990D03*
X-44654631Y31648990D03*
X-44654631Y32448990D03*
X-44654631Y33248990D03*
X-44654631Y34048990D03*
X-47194631Y34048990D03*
X-47194631Y33248990D03*
X-47194631Y32448990D03*
X-47194631Y31648990D03*
X-47194631Y30848990D03*
X-47194631Y30048990D03*
X-47194631Y29248990D03*
X-47194631Y28448990D03*
D18*
X-45924631Y27298990D03*
X-45924631Y35198990D03*
%TD*%
D15*
%TO.C,C13*%
X-6345000Y-1545000D03*
X-7295000Y-1545000D03*
%TD*%
%TO.C,C16*%
X5675000Y5055000D03*
X6625000Y5055000D03*
%TD*%
%TO.C,C8*%
X2665000Y5665000D03*
X2665000Y6615000D03*
%TD*%
D19*
%TO.C,X1*%
X-17495000Y-2065000D03*
X-17495000Y-4265000D03*
X-15795000Y-4265000D03*
X-15795000Y-2065000D03*
%TD*%
D15*
%TO.C,C15*%
X5675000Y3655000D03*
X6625000Y3655000D03*
%TD*%
D16*
%TO.C,C4*%
X7790000Y10655000D03*
X9590000Y10655000D03*
%TD*%
D15*
%TO.C,C12*%
X5675000Y-1545000D03*
X6625000Y-1545000D03*
%TD*%
D20*
%TO.C,ESTOP1*%
X-46947500Y6200000D03*
X-39937500Y6200000D03*
D21*
X-45697500Y8690000D03*
X-41197500Y8690000D03*
%TD*%
D15*
%TO.C,C9*%
X-335000Y6665000D03*
X-335000Y7615000D03*
%TD*%
%TO.C,C2*%
X-13845000Y-2340000D03*
X-13845000Y-1390000D03*
%TD*%
D22*
%TO.C,BOOT_SEL1*%
X-7685000Y23040000D03*
X-7685000Y18940000D03*
X-9285000Y23040000D03*
X-9285000Y18940000D03*
%TD*%
D16*
%TO.C,C17*%
X-14620000Y21620000D03*
X-12820000Y21620000D03*
%TD*%
D23*
%TO.C,U2*%
X-10885000Y14285000D03*
X-10885000Y13015000D03*
X-10885000Y11745000D03*
X-10885000Y10475000D03*
X-3685000Y10475000D03*
X-3685000Y11745000D03*
X-3685000Y13015000D03*
X-3685000Y14285000D03*
%TD*%
D15*
%TO.C,R5*%
X-11320000Y-2465000D03*
X-10370000Y-2465000D03*
%TD*%
D24*
%TO.C,U1*%
X9965000Y19955000D03*
X7665000Y19955000D03*
X5365000Y19955000D03*
D25*
X7665000Y13655000D03*
%TD*%
D26*
%TO.C,U3*%
X-3735000Y2255000D03*
X-3735000Y1855000D03*
X-3735000Y1455000D03*
X-3735000Y1055000D03*
X-3735000Y655000D03*
X-3735000Y255000D03*
X-3735000Y-145000D03*
X-3735000Y-545000D03*
X-3735000Y-945000D03*
X-3735000Y-1345000D03*
X-3735000Y-1745000D03*
X-3735000Y-2145000D03*
X-3735000Y-2545000D03*
X-3735000Y-2945000D03*
D27*
X-2935000Y-3745000D03*
X-2535000Y-3745000D03*
X-2135000Y-3745000D03*
X-1735000Y-3745000D03*
X-1335000Y-3745000D03*
X-935000Y-3745000D03*
X-535000Y-3745000D03*
X-135000Y-3745000D03*
X265000Y-3745000D03*
X665000Y-3745000D03*
X1065000Y-3745000D03*
X1465000Y-3745000D03*
X1865000Y-3745000D03*
X2265000Y-3745000D03*
D26*
X3065000Y-2945000D03*
X3065000Y-2545000D03*
X3065000Y-2145000D03*
X3065000Y-1745000D03*
X3065000Y-1345000D03*
X3065000Y-945000D03*
X3065000Y-545000D03*
X3065000Y-145000D03*
X3065000Y255000D03*
X3065000Y655000D03*
X3065000Y1055000D03*
X3065000Y1455000D03*
X3065000Y1855000D03*
X3065000Y2255000D03*
D27*
X2265000Y3055000D03*
X1865000Y3055000D03*
X1465000Y3055000D03*
X1065000Y3055000D03*
X665000Y3055000D03*
X265000Y3055000D03*
X-135000Y3055000D03*
X-535000Y3055000D03*
X-935000Y3055000D03*
X-1335000Y3055000D03*
X-1735000Y3055000D03*
X-2135000Y3055000D03*
X-2535000Y3055000D03*
X-2935000Y3055000D03*
%TD*%
D15*
%TO.C,C11*%
X-6345000Y2655000D03*
X-7295000Y2655000D03*
%TD*%
D28*
%TO.C,J3*%
X-3721616Y24911911D03*
D29*
X-1181616Y24911911D03*
X1358384Y24911911D03*
X3898384Y24911911D03*
%TD*%
D15*
%TO.C,C3*%
X-13845000Y-3990000D03*
X-13845000Y-4940000D03*
%TD*%
%TO.C,C10*%
X3665000Y5665000D03*
X3665000Y6615000D03*
%TD*%
D28*
%TO.C,J4*%
X-30900509Y35148300D03*
D29*
X-30900509Y32608300D03*
X-30900509Y30068300D03*
X-30900509Y27528300D03*
%TD*%
D15*
%TO.C,R4*%
X1665000Y6615000D03*
X1665000Y5665000D03*
%TD*%
%TO.C,C14*%
X1200000Y-5954000D03*
X2150000Y-5954000D03*
%TD*%
%TO.C,R2*%
X-10835000Y17815000D03*
X-10835000Y16865000D03*
%TD*%
%LPD*%
M02*
